<svg xmlns="http://www.w3.org/2000/svg" width="230" height="256" viewBox="0 0 230 256">
  <g fill="none">
    <path fill="#F0BF1A" d="M12.8396531,71.7635133 L182.19887,71.7635133 C200.862702,71.7635133 217.52866,63.2054154 228.711206,49.8450797 C205.384772,19.5448839 168.774087,0.000268531469 127.579569,0.000268531469 C77.1386182,0.000268531469 33.5452196,29.2800448 12.8396531,71.7635133"/>
    <path fill="#07A5DE" d="M167.845773,91.6979469 L5.15150769,91.6979469 C1.81992727,103.084576 0.000179020979,115.116576 0.000179020979,127.579122 C0.000179020979,140.042562 1.81992727,152.075457 5.15150769,163.461192 L167.845773,163.461192 C187.381438,163.461192 203.727843,147.514003 203.727843,127.579122 C203.727843,107.645136 187.780655,91.6979469 167.845773,91.6979469"/>
    <path fill="#3EBEB0" d="M229.146495,204.759541 C218.034663,191.699066 201.502971,183.395178 182.995782,183.395178 L12.8399217,183.395178 C33.5454881,225.879541 77.1388867,255.158422 127.578943,255.158422 C169.02767,255.158422 205.843334,235.37929 229.146495,204.759541"/>
    <path fill="#231F20" d="M5.15177622,91.6979469 C1.8193007,103.084576 0.000447552448,115.116576 0.000447552448,127.579122 C0.000447552448,140.042562 1.8193007,152.075457 5.15177622,163.461192 L111.631664,163.461192 C114.422601,152.69666 116.016783,140.736269 116.016783,127.579122 C116.016783,114.42287 114.422601,102.462478 111.631664,91.6979469 L5.15177622,91.6979469 Z"/>
    <path fill="#D7A229" d="M63.3912392,17.143765 C41.8612811,29.9016951 23.9206937,49.0381427 12.7578406,71.7639608 L106.847687,71.7639608 C97.2790154,49.8356811 82.129365,31.496772 63.3912392,17.143765"/>
    <path fill="#019B8F" d="M67.3781259,240.008683 C85.717035,225.257354 100.468364,205.72169 109.638713,183.395088 L12.7579301,183.395088 C24.7183217,207.316766 43.8556643,227.250752 67.3781259,240.008683"/>
  </g>
</svg>
