<svg xmlns="http://www.w3.org/2000/svg" width="186" height="256" viewBox="0 0 186 256">
  <g fill="none">
    <path fill="#D33833" d="M182.876689,123.461666 C182.876689,174.120029 142.711844,215.225672 93.1390184,215.225672 C43.5661918,215.225672 3.4013472,174.120029 3.4013472,123.461666 C3.4013472,72.8033039 43.5661918,31.6976612 93.1390184,31.6976612 C142.711844,31.6976612 182.876689,72.8033039 182.876689,123.461666"/>
    <path fill="#EF3D3A" d="M7.09217077,146.185561 C7.09217077,146.185561 0.578952716,50.5136244 88.7968726,47.763599 L82.6455004,37.4871883 L34.809532,53.5531262 L21.1317741,69.2572186 L9.19087437,92.1258506 L2.38817995,118.757676 L4.41451446,136.560472"/>
    <path fill="#231F20" d="M31.6976612,60.8624042 C15.9935688,77.0007113 6.22374169,99.2180214 6.22374169,123.823512 L6.22374169,123.823512 C6.22374169,148.429003 15.9935688,170.646313 31.6976612,186.78462 L31.6976612,186.78462 C47.4741227,202.922927 69.1124804,212.837492 93.1390184,212.837492 L93.1390184,212.837492 C117.165556,212.837492 138.803913,202.922927 154.580375,186.78462 L154.580375,186.78462 C170.284467,170.646313 180.054295,148.429003 180.054295,123.823512 L180.054295,123.823512 C180.054295,99.2180214 170.284467,77.0007113 154.580375,60.8624042 L154.580375,60.8624042 C138.803913,44.7964663 117.165556,34.809532 93.1390184,34.809532 L93.1390184,34.809532 C69.1848495,34.809532 47.4741227,44.7240972 31.6976612,60.8624042 L31.6976612,60.8624042 L31.6976612,60.8624042 Z M27.7173613,190.620182 C11.0001016,173.541076 0.651321805,149.876384 0.651321805,123.823512 L0.651321805,123.823512 C0.651321805,97.7706397 11.0001016,74.1059479 27.7173613,56.9544734 L27.7173613,56.9544734 C44.4346209,39.8753683 67.5927295,29.2371121 93.1390184,29.2371121 L93.1390184,29.2371121 C118.685307,29.2371121 141.843415,39.8753683 158.560675,56.9544734 L158.560675,56.9544734 C175.277935,74.0335787 185.626714,97.6982705 185.626714,123.823512 L185.626714,123.823512 C185.626714,149.876384 175.277935,173.541076 158.560675,190.620182 L158.560675,190.620182 C141.843415,207.771656 118.685307,218.337543 93.1390184,218.337543 L93.1390184,218.337543 C67.5927295,218.337543 44.4346209,207.771656 27.7173613,190.620182 L27.7173613,190.620182 L27.7173613,190.620182 Z"/>
    <polyline fill="#F0D6B7" points="130.916 123.968 117.238 125.995 98.784 128.093 86.843 128.383 75.191 128.021 66.29 125.271 58.402 116.731 52.25 99.29 50.875 95.527 42.698 92.777 37.921 84.889 34.52 73.599 38.283 63.685 47.185 60.573 54.349 63.974 57.751 71.501 61.876 70.849 63.251 69.112 61.876 61.224 61.514 51.31 63.54 37.632 63.468 29.816 69.691 19.829 80.619 11.941 99.725 3.763 120.929 6.875 139.383 20.191 147.922 33.869 153.422 43.783 154.797 68.389 150.672 89.593 143.146 108.409 136.054 118.468"/>
    <polyline fill="#335061" points="119.337 183.094 70.487 185.12 70.487 193.298 74.613 222.028 72.586 224.417 38.428 212.765 36.04 208.64 32.638 169.995 24.605 146.837 22.869 141.337 50.224 122.521 58.764 119.12 66.29 128.383 72.803 134.172 80.33 136.56 83.731 137.574 87.856 155.376 90.968 159.14 98.856 156.39 93.356 167.028 123.027 181.067 119.337 183.094"/>
    <polyline fill="#6D6B6D" points="38.283 63.83 47.185 60.718 54.349 64.119 57.751 71.645 61.876 70.994 62.889 66.869 60.862 58.981 62.889 40.165 61.152 29.888 67.303 22.724 80.619 12.158 76.856 7.02 58.04 16.283 50.152 22.434 45.737 31.987 38.935 41.25 36.908 52.178 38.283 63.83"/>
    <path fill="#DCD9D8" d="M52.3228517 31.6976612C52.3228517 31.6976612 57.461057 19.0330705 77.9415091 12.8816979 98.4219613 6.73032532 78.9546769 8.46718344 78.9546769 8.46718344L56.7373661 17.006736 48.1978135 25.5462886 44.4346209 32.348983 52.3228517 31.6976612M42.046441 61.4413569C42.046441 61.4413569 34.8819011 37.4871883 62.2374169 34.0858411L61.2242496 29.960803 42.4082864 34.3753174 36.9082356 52.1781135 38.2832483 63.8295369 42.046441 61.4413569"/>
    <path fill="#F7E4CD" d="M52.9741734 93.2113869L57.461057 88.8692418C57.461057 88.8692418 59.4873915 89.0863488 59.8492369 91.474529 60.2110824 93.8627092 61.2242496 115.428698 75.915175 127.007752 77.2901875 128.093288 64.9874423 125.270894 64.9874423 125.270894L54.0597098 108.191788M115.862912 86.6981693C115.862912 86.6981693 116.658972 76.3493897 119.481367 77.145449 122.303761 77.9415091 122.303761 80.763904 122.303761 80.763904 122.303761 80.763904 115.501067 85.1060491 115.862912 86.6981693M144.231595 48.7767663C144.231595 48.7767663 138.586806 49.9346717 138.080222 54.9281389 137.573639 59.921606 144.231595 55.9413061 145.244762 55.5794607M102.908845 49.1386117C102.908845 49.1386117 95.3824602 50.151779 95.3824602 54.9281389 95.3824602 59.7044988 103.922013 59.3426533 106.310192 57.3163188M56.4478897 71.3559222C56.4478897 71.3559222 43.4938227 63.4676914 42.11881 70.9940767 40.7437974 78.5204622 37.7042956 83.9481436 44.1451446 91.8363744L39.7306301 90.461362 35.605592 79.8954747 34.2305793 69.6190641 42.11881 61.4413569 51.0202081 62.0926787 56.1584134 66.2177168 56.4478897 71.3559222M62.5992624 49.7899335C62.5992624 49.7899335 68.3887895 19.6843923 97.7706397 13.8948652 121.941915 9.11850528 134.678875 14.9080324 139.455236 20.4080832 139.455236 20.4080832 117.889246-5.21057444 97.4087943 2.60528722 76.9283421 10.493518 61.8755715 24.8225977 62.2374169 34.013472 62.8163696 49.7899335 62.5992624 49.7899335 62.5992624 49.7899335M141.843415 23.8094304C141.843415 23.8094304 131.92885 23.447585 131.567005 32.348983 131.567005 32.348983 131.567005 33.7239957 132.218326 35.0990084 132.218326 35.0990084 140.106557 26.1976103 144.882917 30.9739703"/>
    <path fill="#F7E4CD" d="M98.4943305,36.0398065 C98.4943305,36.0398065 96.7574726,22.4344177 85.1784183,30.3226485 C77.6520329,35.4608538 78.3757238,42.6253937 79.6783677,44.0004064 C81.0533802,45.3754191 80.6915348,48.1254444 81.7047018,46.2438482 C82.7178689,44.3622518 82.4283927,38.2108792 86.1915854,36.4740211 C89.8824088,34.7371629 96.106151,32.8555666 98.4943305,36.0398065"/>
    <path fill="#49728B" d="M66.362455 128.382764L34.2305793 142.711844C34.2305793 142.711844 47.5464918 195.686018 40.7437974 212.113801L35.9674375 210.376943 35.605592 190.185967 26.704194 151.975088 22.9410014 141.409201 56.4478897 118.830045 66.362455 128.382764M69.6190641 157.692246L74.1783164 163.264666 74.1783164 183.745118 68.750635 183.745118C68.750635 183.745118 68.0993131 169.416038 68.0993131 167.67918 68.0993131 165.942322 68.750635 159.790949 68.750635 159.790949"/>
    <polyline fill="#49728B" points="69.764 186.857 54.349 187.508 58.764 190.62 69.691 192.357"/>
    <polyline fill="#335061" points="122.376 183.456 135.041 183.094 138.153 214.502 125.199 216.239 122.376 183.456"/>
    <path fill="#335061" d="M125.777477,183.455642 L144.882917,182.442474 C144.882917,182.442474 152.771148,162.613344 152.771148,161.600177 C152.771148,160.587009 159.573842,132.869648 159.573842,132.869648 L144.159226,116.80371 L141.047355,114.053685 L132.869648,122.231392 L132.869648,154.001423 L125.777477,183.455642"/>
    <path fill="#49728B" d="M134.31703,181.067462 L122.37613,183.455642 L124.112989,193.008361 C128.527503,195.034696 136.053888,189.607014 136.053888,189.607014"/>
    <polyline fill="#49728B" points="134.679 121.218 158.633 139.021 159.284 130.843 141.192 114.126 134.679 121.218"/>
    <polyline fill="#FFF" points="81.632 250.759 74.54 222.028 70.994 200.824 70.415 185.12 102.475 183.383 122.376 183.383 120.567 219.278 123.679 246.996 123.317 252.134 97.336 254.16 81.632 250.759"/>
    <path fill="#DCD9D8" d="M117.961616,183.093796 C117.961616,183.093796 116.224758,218.627019 121.362963,243.956201 C121.362963,243.956201 111.086553,250.469418 96.106151,252.133908 L124.836679,251.120741 L128.238027,249.094406 L124.112989,193.080731 L123.027452,181.067462"/>
    <polyline fill="#FFF" points="138.659 211.824 151.975 208.061 177.232 206.686 180.995 195.035 174.192 174.844 166.304 173.831 155.376 177.232 144.955 182.37 139.383 181.357 135.041 183.094"/>
    <path fill="#DCD9D8" d="M138.442068,204.949261 C138.442068,204.949261 147.343466,200.824223 148.718479,201.186068 L144.955286,182.370106 L149.369801,180.633247 C149.369801,180.633247 152.481672,198.436043 152.481672,200.462378 C152.481672,200.462378 171.587111,201.475545 173.323969,201.475545 C173.323969,201.475545 177.449007,193.587315 176.43584,185.409607 L180.199032,196.337339 L180.560878,202.488712 L175.060827,210.666419 L168.909455,212.041432 L158.633044,211.679586 L155.231697,207.265072 L143.290797,209.00193 L139.527604,210.376943"/>
    <path fill="#FFF" d="M124.981417,180.705616 L117.455032,161.600177 L109.566802,150.310598 C109.566802,150.310598 111.30366,145.534239 113.69184,145.534239 L121.58007,145.534239 L129.106455,148.284264 L128.455134,160.948855 L124.981417,180.705616"/>
    <path fill="#DCD9D8" d="M126.501168,174.192399 C126.501168,174.192399 116.948449,155.73828 116.948449,152.988255 C116.948449,152.988255 118.685307,148.863217 121.073487,149.876384 C123.461666,150.889551 128.599872,153.639577 128.599872,153.639577 L128.599872,147.126359 L116.948449,144.738179 L109.060218,145.751346 L122.37613,177.304269 L125.126156,177.666114"/>
    <polyline fill="#FFF" points="84.672 129.106 75.191 128.093 66.29 125.343 66.29 128.455 70.632 133.231 84.31 139.383"/>
    <path fill="#DCD9D8" d="M69.4019567,130.119623 C69.4019567,130.119623 79.9678439,134.534137 83.4415604,133.52097 L83.8034059,137.646008 L74.2506856,135.619674 L68.4611586,131.494636 L69.4019567,130.119623"/>
    <path fill="#D33833" d="M138.659176,146.692144 C132.869648,146.547406 127.586704,145.823715 123.027452,144.521072 C123.316929,142.639475 122.737975,140.830248 123.244559,139.455236 C124.547203,138.514437 126.645907,138.514437 128.599872,138.29733 C126.935383,137.50127 124.547203,137.139425 122.665607,137.646008 C122.593238,136.343365 122.014285,135.547304 121.652439,134.534137 C124.909049,133.376232 132.580172,125.777477 136.922317,128.238027 C139.021021,129.468301 139.88945,136.270995 140.034188,139.672343 C140.178926,142.422368 139.744712,145.172393 138.659176,146.692144"/>
    <path fill="#000" stroke="#D33833" stroke-width="2" d="M138.659176,146.692144 C132.869648,146.547406 127.586704,145.823715 123.027452,144.521072 C123.316929,142.639475 122.737975,140.830248 123.244559,139.455236 C124.547203,138.514437 126.645907,138.514437 128.599872,138.29733 C126.935383,137.50127 124.547203,137.139425 122.665607,137.646008 C122.593238,136.343365 122.014285,135.547304 121.652439,134.534137 C124.909049,133.376232 132.580172,125.777477 136.922317,128.238027 C139.021021,129.468301 139.88945,136.270995 140.034188,139.672343 C140.178926,142.422368 139.744712,145.172393 138.659176,146.692144 L138.659176,146.692144 Z"/>
    <path fill="#D33833" d="M110.941814,137.211794 C110.941814,137.646008 110.941814,138.080222 110.869445,138.514437 C109.060218,139.672343 106.165454,139.672343 104.13912,140.68551 C107.033883,140.830248 109.349694,141.553939 111.376029,142.494737 C111.30366,143.580274 111.30366,144.738179 111.23129,145.823715 C107.902312,148.067157 104.86281,151.468504 100.95488,153.639577 C99.0732836,154.652744 92.6324345,157.258031 90.6784689,156.751448 C89.5929326,156.461971 89.4481942,155.086959 89.0139803,153.784315 C88.0731817,151.03429 85.9021092,146.547406 85.6850022,142.349999 C85.4678945,137.067055 84.8889421,128.165658 90.6060997,129.251194 C95.2377217,130.119623 100.593035,132.218326 104.13912,134.172292 C106.382561,135.474935 107.612836,136.922317 110.941814,137.211794"/>
    <path fill="#000" stroke="#D33833" stroke-width="2" d="M110.941814,137.211794 C110.941814,137.646008 110.941814,138.080222 110.869445,138.514437 C109.060218,139.672343 106.165454,139.672343 104.13912,140.68551 C107.033883,140.830248 109.349694,141.553939 111.376029,142.494737 C111.30366,143.580274 111.30366,144.738179 111.23129,145.823715 C107.902312,148.067157 104.86281,151.468504 100.95488,153.639577 C99.0732836,154.652744 92.6324345,157.258031 90.6784689,156.751448 C89.5929326,156.461971 89.4481942,155.086959 89.0139803,153.784315 C88.0731817,151.03429 85.9021092,146.547406 85.6850022,142.349999 C85.4678945,137.067055 84.8889421,128.165658 90.6060997,129.251194 C95.2377217,130.119623 100.593035,132.218326 104.13912,134.172292 C106.382561,135.474935 107.612836,136.922317 110.941814,137.211794 L110.941814,137.211794 Z"/>
    <path fill="#D33833" d="M114.198423,143.507905 C113.69184,140.61314 113.112887,139.817081 113.329994,137.284162 C121.073487,132.145957 122.448499,146.113192 114.198423,143.507905"/>
    <path fill="#000" stroke="#D33833" stroke-width="2" d="M114.198423,143.507905 C113.69184,140.61314 113.112887,139.817081 113.329994,137.284162 C121.073487,132.145957 122.448499,146.113192 114.198423,143.507905 L114.198423,143.507905 Z"/>
    <path fill="#EF3D3A" d="M125.343263 145.823715C125.343263 145.823715 122.955083 142.422368 124.691941 141.409201 126.428799 140.396033 128.093288 141.409201 129.106455 139.672343 130.119623 137.935485 129.106455 136.922317 129.468301 134.895983 129.830146 132.869648 131.494636 132.507803 133.231493 132.145957 134.968352 131.784112 139.744712 131.13279 140.396033 132.797279L138.369699 126.645907 134.244661 125.270894 121.290594 132.797279 120.639272 136.560472 120.639272 144.086857M89.4481942 157.113293C89.0139803 151.757981 88.5797656 146.475037 88.145551 141.119724 87.4218601 133.159124 90.0271473 134.534137 96.9745796 134.534137 98.0601159 134.534137 103.487798 135.764411 103.849643 136.560472 105.73124 140.396033 100.737772 139.527604 106.020716 142.422368 110.43523 144.810548 118.323461 140.974986 116.514234 135.547304 115.501067 134.31703 111.30366 135.185459 109.783909 134.389399 107.106252 133.014387 104.428596 131.639373 101.75094 130.264361 98.3495928 128.527503 90.5337312 125.922216 86.9152762 128.382764 77.7244021 134.606507 87.4942293 150.23823 90.7508382 156.751448"/>
    <path fill="#231F20" d="M98.4943305 36.0398065C89.158718 33.8687338 84.5270967 39.9477373 81.7047018 46.2438482 79.1717838 45.6648954 80.1849509 42.1911791 80.8362732 40.454321 82.5007619 35.8950684 89.2310872 29.7436957 94.7311378 30.6121248 97.0469488 30.9016011 100.231189 33.0726738 98.4943305 36.0398065M143.86975 46.6056936L144.303965 46.6056936C146.402668 50.947839 148.211895 55.5794607 150.889551 59.4873915 149.080324 63.6847987 137.428901 67.3032532 137.573639 59.921606 140.106557 58.8360697 144.448702 59.7044988 146.692144 58.257117 145.389501 54.7110316 143.580274 51.6715298 143.86975 46.6056936M103.198322 46.7504318C105.224656 50.4412553 105.875977 54.2768171 108.698372 57.0268425 110.001016 58.257117 112.461565 59.7768678 111.23129 63.2505841 110.941814 64.0466441 108.843111 65.8558713 107.612836 66.2177168 103.198322 67.5203604 92.8495415 66.5071932 96.323258 60.9347733 100.014081 61.0795114 104.93518 63.3229532 107.685205 60.6452969 105.586501 57.3163188 101.823309 50.6583626 103.198322 46.7504318M142.205261 83.9481436C135.547304 88.2179202 128.093288 92.9219107 117.093186 91.8363744 114.777376 89.8100396 113.836578 85.2507876 116.152389 82.2836549 117.310294 84.309989 116.586603 88.0731817 119.915581 88.6521348 126.139323 89.7376711 133.376232 84.8165729 137.863115 83.1520835 140.61314 78.448093 137.646008 76.7836036 135.11309 73.7441025 129.974885 67.5927295 123.17219 59.921606 123.389298 50.7307317 125.488001 49.2109808 125.63274 53.0465425 125.922216 53.6978644 128.599872 59.921606 135.330198 67.954575 140.178926 73.3098878 141.409201 74.6125311 143.363166 75.915175 143.580274 76.7836036 144.231595 79.2441531 141.915784 82.2836549 142.205261 83.9481436M54.0597098 79.46126C51.9610062 78.230986 51.4544226 73.0204109 48.9938735 72.875673 45.4477882 72.6585658 46.09911 79.6783677 46.09911 83.8034059 43.71093 81.6323326 43.2767155 74.8296387 45.0135737 71.3559222 42.9872391 70.3427549 42.11881 72.4414585 40.9609046 73.1651494 42.4806555 62.6716315 56.3755206 68.3164204 54.0597098 79.46126M146.402668 88.3626579C143.290797 94.2969232 138.876283 100.810142 129.757778 101.027249 129.54067 99.1456521 129.395932 96.1785195 129.757778 95.0206147 136.777579 94.2969232 141.119724 90.7508382 146.402668 88.3626579M102.691738 92.1982199C108.481265 95.2377217 119.19189 95.5995671 127.15249 95.3824602 127.586704 97.1193181 127.586704 99.2903906 127.586704 101.389094 117.382663 101.823309 105.369394 99.2903906 102.691738 92.1982199M101.606202 97.8430089C105.658871 107.974682 119.481367 106.816776 131.13279 106.5273 130.626206 107.829943 129.54067 109.422063 128.093288 109.928647 124.330096 111.448398 114.053685 112.606303 108.843111 109.856278 105.586501 108.119419 103.415429 104.13912 101.606202 101.823309 100.810142 100.737772 96.4679964 97.9153781 101.606202 97.8430089"/>
    <path fill="#81B0C4" d="M141.698677,153.639577 C136.994686,161.744915 132.435433,170.06736 126.863014,177.159531 C129.178825,170.284467 130.191992,158.705413 130.553837,149.876384 C135.474935,147.560573 139.672343,150.382968 141.698677,153.639577"/>
    <path fill="#231F20" d="M167.100228 182.731951C161.817284 183.817487 158.126461 188.955692 152.915886 188.593847 155.81065 184.613547 160.731748 182.876689 167.100228 182.731951M169.416038 190.982027C165.073893 191.416241 160.008057 192.139932 155.665911 191.778087 157.764615 188.593847 165.725215 189.751753 169.416038 190.982027M170.935789 198.146567C166.08706 198.218936 160.080426 198.146567 155.448804 197.784721 158.198829 194.817589 167.823919 196.699185 170.935789 198.146567"/>
    <path fill="#DCD9D8" d="M132.580172,217.686221 C133.303863,223.765225 135.692043,229.916597 135.402566,236.574553 C132.72491,237.442982 131.205159,238.239042 127.586704,238.239042 C127.369597,232.594253 126.573537,223.909962 126.790644,218.482281 C128.527503,218.627019 131.13279,217.252006 132.580172,217.686221"/>
    <path fill="#F0D6B7" d="M124.76431,127.94855 C122.303761,129.54067 120.277427,131.494636 117.889246,133.231493 C112.678672,133.52097 109.856278,132.869648 106.093085,129.902515 C106.165454,129.685408 106.5273,129.757778 106.5273,129.468301 C112.09972,131.92885 119.19189,128.455134 124.76431,127.94855"/>
    <path fill="#81B0C4" d="M95.6719364,165.797584 C97.1916873,159.211997 103.198322,155.73828 108.626003,152.119826 C114.198423,159.211997 117.59977,168.330502 121.362963,177.159531 C112.461565,174.481875 103.415429,170.212098 95.6719364,165.797584"/>
    <path fill="#231F20" d="M126.790644,218.55465 C126.573537,223.982332 127.297228,232.594253 127.586704,238.311412 C131.205159,238.311412 132.72491,237.515352 135.402566,236.646922 C135.692043,229.988966 133.303863,223.837594 132.580172,217.75859 C131.13279,217.252006 128.527503,218.627019 126.790644,218.55465 L126.790644,218.55465 Z M70.9217077,187.870156 C73.3098878,209.653252 76.7112351,227.890263 83.0073458,247.212809 C96.9745796,251.482586 113.764208,251.844431 126.139323,248.00887 C123.895881,237.153506 124.836679,223.909962 123.534036,212.25854 C122.520868,203.501879 123.027452,194.745219 121.652439,185.843821 C106.672038,182.731951 85.5402637,185.120131 70.9217077,187.870156 L70.9217077,187.870156 Z M125.198525,185.98856 C125.053786,195.324172 125.63274,204.587416 126.35643,213.923028 C129.974885,213.416444 132.363065,213.054599 135.692043,212.25854 C134.606507,203.284772 134.751244,193.080731 132.507803,185.120131 C129.974885,185.1925 127.731443,185.120131 125.198525,185.98856 L125.198525,185.98856 Z M143.363166,184.468809 C141.626308,184.106964 139.672343,184.468809 138.080222,184.468809 C138.876283,192.067564 140.68551,200.462378 141.336832,208.495347 C143.86975,208.567715 145.244762,207.337441 147.343466,206.975596 C147.488204,199.955794 146.764513,190.258336 143.363166,184.468809 L143.363166,184.468809 L143.363166,184.468809 Z M170.935789,209.653252 C176.291102,208.350608 179.62008,201.83739 178.100329,195.107065 C177.087162,190.620182 175.350303,182.080629 173.396339,179.185865 C172.021325,177.087162 168.185764,174.264767 165.073893,176.218733 C160.080426,179.402973 151.323766,180.343771 147.705311,184.179333 C149.514539,190.258336 150.093491,198.508412 150.817182,206.179536 C157.040924,206.541381 164.639678,204.442678 169.850253,206.68612 C166.231799,207.844025 161.600177,207.844025 158.488306,209.580883 C161.093593,210.811157 167.027859,210.59405 170.935789,209.653252 L170.935789,209.653252 L170.935789,209.653252 Z M121.290594,177.159531 C117.527401,168.330502 114.126054,159.211997 108.553634,152.119826 C103.125953,155.73828 97.1916873,159.211997 95.5995671,165.797584 C103.415429,170.212098 112.461565,174.481875 121.290594,177.159531 L121.290594,177.159531 Z M130.553837,149.876384 C130.191992,158.705413 129.178825,170.284467 126.863014,177.159531 C132.435433,169.994991 136.994686,161.744915 141.698677,153.639577 C139.672343,150.382968 135.474935,147.560573 130.553837,149.876384 L130.553837,149.876384 Z M120.060319,146.185561 C117.961616,145.968453 116.152389,148.64611 113.402363,147.488204 C112.751041,148.211895 112.172089,148.935586 111.520767,149.659277 C117.59977,157.040924 120.422165,167.462073 125.126156,176.073994 C127.659074,167.751549 127.369597,158.705413 127.94855,149.659277 C124.474834,149.804015 122.520868,146.402668 120.060319,146.185561 L120.060319,146.185561 Z M113.329994,137.284162 C113.112887,139.817081 113.69184,140.61314 114.198423,143.507905 C122.448499,146.113192 121.073487,132.145957 113.329994,137.284162 L113.329994,137.284162 Z M104.13912,134.244661 C100.593035,132.290696 95.2377217,130.191992 90.6060997,129.323563 C84.8889421,128.238027 85.4678945,137.139425 85.6850022,142.422368 C85.9021092,146.619775 88.0731817,151.03429 89.0139803,153.856684 C89.4481942,155.159327 89.5929326,156.534341 90.6784689,156.823817 C92.6324345,157.258031 99.1456521,154.725113 100.95488,153.711946 C104.86281,151.613242 107.902312,148.211895 111.23129,145.896084 C111.30366,144.810548 111.30366,143.652642 111.376029,142.567106 C109.349694,141.553939 107.106252,140.902617 104.13912,140.757879 C106.093085,139.744712 109.060218,139.744712 110.869445,138.586806 C110.869445,138.152592 110.869445,137.718377 110.941814,137.284162 C107.612836,136.922317 106.382561,135.474935 104.13912,134.244661 L104.13912,134.244661 Z M70.1256476,128.093288 C67.158515,131.13279 78.448093,135.185459 81.994178,135.402566 C81.994178,133.52097 83.079715,131.711743 82.8626073,130.33673 C78.5928315,129.613039 73.0204109,130.119623 70.1256476,128.093288 L70.1256476,128.093288 Z M106.599669,129.468301 C106.599669,129.757778 106.237824,129.685408 106.165454,129.902515 C110.001016,132.869648 112.823411,133.52097 117.961616,133.231493 C120.277427,131.567005 122.37613,129.54067 124.836679,127.94855 C119.19189,128.455134 112.09972,131.92885 106.599669,129.468301 L106.599669,129.468301 Z M140.034188,139.599973 C139.88945,136.270995 139.021021,129.395932 136.922317,128.165658 C132.580172,125.63274 124.909049,133.303863 121.652439,134.461768 C122.014285,135.474935 122.593238,136.270995 122.665607,137.573639 C124.619572,137.067055 126.935383,137.428901 128.599872,138.224961 C126.645907,138.442068 124.547203,138.442068 123.244559,139.382866 C122.810345,140.757879 123.389298,142.567106 123.027452,144.448702 C127.586704,145.751346 132.869648,146.402668 138.659176,146.619775 C139.744712,145.172393 140.178926,142.422368 140.034188,139.599973 L140.034188,139.599973 Z M65.1321805,130.988052 C64.1913823,130.33673 57.8952716,122.159023 57.0268425,122.520868 C45.6648954,127.007752 35.0266393,134.751244 25.5462886,142.132891 C34.5924248,161.600177 38.2832483,185.409607 38.9345701,208.350608 C49.2833499,213.199337 58.4018552,220.219139 72.5138276,220.94283 C70.8493386,209.436145 69.4019567,199.087365 68.4611586,188.232002 C64.9150732,186.712251 59.8492369,188.304371 56.5202588,187.797787 C56.5202588,183.817487 61.5860951,186.060929 62.0203096,183.383273 C62.309786,181.356938 59.1979152,181.2122 60.2110824,178.02796 C62.8163696,178.968758 64.1913823,181.067462 66.9414077,181.863522 C69.4743259,176.363471 66.9414077,166.593644 67.3032532,161.962022 C67.3756223,161.093593 67.7374677,157.185662 69.6914331,157.836984 C71.4282912,158.415937 69.6190641,168.330502 69.7638022,172.672648 C69.9085404,176.725317 69.2572186,180.560878 70.9217077,183.093796 C84.5270967,181.2122 98.3495928,180.054295 113.112887,179.62008 C109.856278,178.245067 106.020716,176.942424 101.823309,174.554244 C99.5074983,173.2516 92.3429583,170.573944 91.691636,168.402871 C90.6060997,164.929155 94.4416616,163.119927 95.0929832,160.152795 C88.2179202,163.915988 86.9152762,156.534341 85.2507876,151.396135 C83.8034059,146.692144 82.9349765,143.146059 82.5731311,140.468403 C76.5664966,137.428901 70.1980167,134.606507 65.1321805,130.988052 L65.1321805,130.988052 L65.1321805,130.988052 Z M134.027554,123.461666 C143.507905,118.902414 145.244762,140.61314 141.48157,147.632943 C142.060523,149.731646 144.014488,150.527706 144.810548,152.409302 C139.527604,161.889653 133.665708,170.718682 128.238027,180.054295 C132.218326,177.521377 138.007853,179.62008 142.711844,177.738484 C144.448702,177.087162 145.678977,173.106862 146.98162,169.922622 C150.600075,161.238331 154.363268,150.23823 156.027757,141.988154 C156.389602,140.106557 157.475138,135.981519 157.185662,134.31703 C156.751448,131.277528 152.698779,129.034086 150.600075,127.224859 C146.764513,123.751143 144.376333,120.784011 140.323664,117.527401 C138.803913,119.915581 135.330198,121.507701 134.027554,123.461666 L134.027554,123.461666 L134.027554,123.461666 Z M43.4938227,39.4411538 C39.0069392,44.4346209 39.9477373,53.6978644 40.454321,60.3558206 C48.6320281,55.2176152 59.4150224,60.7900351 59.3426533,69.4743259 C63.2505841,69.4019567 60.7900351,64.6255968 60.0663442,61.513726 C57.7505333,51.4544226 63.9742751,40.5990592 60.3558206,31.4081848 C53.3360189,31.9871375 47.6188609,34.809532 43.4938227,39.4411538 L43.4938227,39.4411538 L43.4938227,39.4411538 Z M75.7704366,10.5658871 C65.566395,13.4606507 52.4675898,20.9146668 48.2701826,30.1055412 C51.5267917,29.5989575 53.7702334,28.0068376 56.9544734,27.7897304 C58.1847479,27.7173613 59.7768678,28.2963139 61.1518805,27.9344685 C63.901906,27.2107776 66.2900859,20.9870359 68.3887895,18.6712251 C70.415124,16.4277833 72.875673,15.414616 74.5401618,13.3882815 C75.6256981,12.8816979 77.2178183,12.8816979 77.2901875,11.289578 C76.8559728,10.7829943 76.3493897,10.4211489 75.7704366,10.5658871 L75.7704366,10.5658871 Z M128.961718,13.3159124 C118.323461,7.30927801 100.375927,2.82239449 89.0863488,8.46718344 C79.9678439,13.0264361 67.6650986,20.5528214 63.4676914,30.0331721 C67.3756223,39.2240465 62.309786,47.6188609 61.9479405,56.9544734 C61.8032024,61.9479405 64.2637514,66.2177168 64.4808587,71.6453985 C63.105846,73.8888402 59.053177,74.1059479 56.2307825,73.9612094 C55.2899843,69.1848495 53.6254953,63.8295369 48.7043972,63.2505841 C41.7569646,62.4545242 36.6187592,68.2440513 36.3292829,74.2506856 C35.9674375,81.3428564 41.7569646,93.0666492 50.0070408,92.2705891 C53.1912808,91.9811129 53.9873407,88.7968726 57.461057,88.7968726 C59.3426533,92.5600653 54.5662934,93.7179708 54.0597098,96.3956272 C53.9149716,97.1193181 54.4215553,99.7969745 54.7834007,101.099618 C56.3031516,107.250991 59.6321297,115.283959 62.8887387,119.98795 C67.0861459,125.994585 75.2638527,126.863014 84.0928821,127.441967 C85.6850022,124.040619 91.474529,124.330096 95.2377217,125.198525 C90.6784689,123.389298 86.4810616,119.047152 83.0073458,115.21159 C79.0270454,110.797076 74.9743765,106.093085 74.7572695,100.303558 C82.3560234,110.797076 88.5797656,119.98795 102.329892,124.619572 C112.751041,128.093288 124.909049,123.027452 132.942017,117.382663 C136.270995,115.066852 138.224961,111.30366 140.61314,107.974682 C149.44217,95.2377217 153.567208,77.145449 152.698779,59.5597606 C152.336933,52.3228517 152.336933,45.0859427 149.876384,40.2372137 C147.343466,35.1713774 138.731544,30.5397557 133.665708,35.1713774 C132.72491,30.1779103 137.863115,27.1384085 143.86975,28.9476358 C139.599973,23.3752159 135.11309,16.7896287 128.961718,13.3159124 L128.961718,13.3159124 L128.961718,13.3159124 Z M148.790848,176.942424 C157.113293,172.817385 172.600278,165.869953 177.738484,176.942424 C179.692449,181.067462 181.935891,187.942525 182.876689,192.212301 C184.251702,198.146567 181.356938,210.738789 175.205566,212.692754 C169.777884,214.429612 163.481773,214.357243 156.968555,213.054599 C156.172495,212.403277 155.376435,211.317741 154.725113,210.159836 C150.093491,210.015098 145.678977,210.376943 142.060523,212.330908 C142.422368,215.804625 140.106557,216.311208 137.863115,217.034899 C136.270995,223.475748 141.119724,231.870562 139.961819,237.66009 C139.165759,241.857497 134.027554,242.508819 130.264361,243.23251 C130.119623,245.54832 130.409099,247.502286 130.698575,249.456251 C129.830146,252.640491 125.994585,254.449719 122.303761,254.883933 C110.218123,256.331315 91.9087437,256.982637 80.3296893,252.785229 C77.0730805,244.824629 74.5401618,235.199541 71.8625058,226.153404 C60.5729279,227.383679 51.3820535,221.304675 42.7701319,217.252006 C39.8029992,215.876994 35.6779611,215.080934 34.5200557,212.692754 C33.4345193,210.376943 33.8687338,205.962428 33.5792575,201.83739 C32.9279357,191.199134 32.2766139,180.922724 29.5265885,170.06736 C28.2963139,165.146262 26.0528722,160.876486 24.5331213,156.172495 C23.0857395,151.830349 20.6251905,146.402668 19.9738687,142.060523 C19.0330705,135.619674 25.1120741,135.257828 28.9476358,132.435433 C34.9542702,128.093288 39.658261,125.705108 46.1714791,121.797178 C48.1254444,120.639272 53.9149716,117.744509 54.5662934,116.369496 C55.868937,113.69184 52.3228517,109.928647 51.3820535,107.829943 C49.8623026,104.500965 49.0662426,101.678571 48.8491354,98.4219613 C43.4214536,97.5535327 39.2240465,94.2969232 36.7634975,90.6784689 C32.6384593,84.5994652 29.7436957,73.3822563 33.3621503,64.9150732 C33.6516266,64.2637514 35.0266393,62.8887387 35.2437465,61.8755715 C35.6779611,59.8492369 34.4476866,57.1715806 34.3753174,55.000508 C34.013472,43.9280373 36.2569138,34.3753174 43.71093,31.0463394 C46.7504318,18.9607014 57.6057952,14.9804015 67.8098368,8.97376711 C71.6453985,6.73032532 75.8428058,5.28294353 80.1849509,3.69082356 C95.7443056,-2.0263345 119.698474,-0.940798162 132.652541,8.82902894 C138.152592,12.954067 146.909252,21.7107269 150.021122,28.0792067 C158.343568,44.7964663 157.692246,72.8033039 151.902719,93.2113869 C151.106658,95.9614126 150.021122,99.9417122 148.429003,103.27069 C147.343466,105.586501 143.942119,110.145754 144.303965,112.172089 C144.738179,114.270792 152.119826,119.843212 153.711946,121.362963 C156.534341,124.112989 161.962022,127.731443 162.396237,131.205159 C162.90282,134.895983 160.804116,139.961819 159.71858,143.507905 C156.244864,155.376435 152.771148,166.304168 148.790848,176.942424 L148.790848,176.942424 Z"/>
    <path fill="#F7E4CD" d="M93.4284946,94.7311378 C93.8627092,94.1521854 96.323258,93.2113869 99.7969745,94.8758763 C99.7969745,94.8758763 95.6719364,95.5271979 96.0337818,102.402262 L94.2969232,102.040416 C94.3692924,102.112786 92.5600653,95.8890433 93.4284946,94.7311378"/>
    <path fill="#1D1919" d="M123.389298 153.494839C123.389298 154.508006 122.520868 155.376435 121.507701 155.376435 120.494534 155.376435 119.626105 154.508006 119.626105 153.494839 119.626105 152.481672 120.494534 151.613242 121.507701 151.613242 122.593238 151.613242 123.389298 152.481672 123.389298 153.494839M125.270894 162.251499C125.270894 163.264666 124.402465 164.133094 123.389298 164.133094 122.37613 164.133094 121.507701 163.264666 121.507701 162.251499 121.507701 161.238331 122.37613 160.369902 123.389298 160.369902 124.474834 160.369902 125.270894 161.165962 125.270894 162.251499"/>
  </g>
</svg>
