<svg xmlns="http://www.w3.org/2000/svg" width="256" height="59" viewBox="0 0 256 59">
  <g fill="none">
    <path fill="#1A1918" d="M244.859096,4.32306513 L255.56941,4.38191571 C255.56941,4.38191571 235.656828,31.3639234 234.03108,33.5629732 C233.502897,34.2750651 232.700567,35.0430651 232.294008,35.9949732 C231.265594,38.3882299 230.209716,43.6377011 230.209716,43.6377011 L220.410115,43.6862529 C220.410115,43.6862529 221.934835,38.2146207 221.872061,35.300046 C221.816644,32.7537778 220.517027,30.2109425 219.78777,27.657318 C219.051157,25.0727969 218.050697,20.01459 218.050697,20.01459 L228.125425,20.01459 L229.514789,25.5730268 L244.859096,4.32306513"/>
    <path fill="#1A1918" d="M224.578697 10.0134253C226.555096 11.2051494 227.767908 17.7777778 227.767908 17.7777778 227.767908 17.7777778 217.4259 17.9302989 211.797824 17.9302989L206.934314 17.9302989 201.028659 43.6377011 191.996567 43.6377011C191.996567 43.6377011 197.617287 15.7003525 198.944368 10.6352797 199.374958 8.99580075 201.89033 9.27681225 206.138851 9.27681225L212.923341 9.27681225C217.304276 9.27681225 222.424766 8.7177318 224.578697 10.0134253M182.529962 22.5333946C182.529962 22.5333946 182.811464 20.8831264 181.574621 18.9724444 180.518743 17.3432644 179.542805 16.964659 176.763586 16.8778544 168.915862 16.6311724 169.068383 22.44659 169.068383 22.44659L182.529962 22.5333946 182.529962 22.5333946zM191.041226 15.8739617C192.191264 20.0219464 189.99908 29.7695632 189.99908 29.7695632 189.99908 29.7695632 178.552153 29.5782989 172.282115 29.7695632 170.33269 29.8289042 167.998774 29.5577011 167.418605 30.4644904 166.602054 31.7356628 167.716782 33.691954 168.661824 34.5183142 169.749579 35.4702222 171.868199 35.5781149 172.629333 35.6752184 177.718437 36.3215939 188.3699 35.8419617 188.3699 35.8419617L186.524935 44.0123831C186.524935 44.0123831 171.47292 44.7666513 163.94446 42.9702375 162.457992 42.6161533 161.064705 41.9006284 160.123096 40.8859464 159.866115 40.6083678 159.643464 40.2297625 159.400215 39.9031418 159.206008 39.6422375 158.640061 38.7844904 158.386023 38.106728 156.666605 33.5247203 158.587586 24.7461762 160.470314 20.0425441 160.689042 19.4971954 160.963678 18.8061916 161.252536 18.2186667 161.613487 17.485977 161.919019 16.6591264 162.207387 16.2211801 162.401594 15.9190805 162.6419 15.7243831 162.843464 15.4394483 163.075923 15.1025287 163.346636 14.775908 163.597241 14.4845977 164.291678 13.6783448 165.080276 13.1084751 166.028751 12.4003065 169.165487 10.0516782 174.842115 8.22780075 181.661425 8.9261609 184.228782 9.19000765 188.106054 10.1070958 189.99908 12.7475249 190.506176 13.452751 190.756291 14.8524138 191.041226 15.8739617L191.041226 15.8739617 191.041226 15.8739617zM149.614345 9.2454253L158.372291 9.1934406C158.372291 9.1934406 153.491617 32.3472184 151.004199 43.6377011L140.929471 43.6377011C133.888 43.6377011 127.617471 44.5096705 124.949579 39.4686284 122.361625 34.5742222 124.831387 26.5249349 125.991724 21.0567356 126.811709 17.1868199 128.538483 9.27681225 128.538483 9.27681225L137.612261 9.1934406C137.612261 9.1934406 135.048337 21.5084138 133.98167 27.657318 133.599632 29.8598008 132.811525 31.9337931 133.634452 33.5629732 134.416184 35.112705 135.510314 35.2235402 138.84518 35.300046 139.901548 35.324567 143.361471 35.300046 143.361471 35.300046L149.614345 9.2454253M108.621977 25.9202452C109.539065 22.6618851 110.876444 19.1288889 110.706268 16.1932261 110.52236 13.0530575 107.889287 10.1939004 106.190467 9.5931341 101.07341 7.78642145 96.282973 10.312092 94.379157 12.3718621 91.91577 15.0402452 91.0820535 18.1563831 90.2100845 22.44659 89.5607665 25.6318774 89.0291495 28.9946973 90.2100845 31.478682 92.3012415 35.8699157 98.821885 34.9111418 105.842759 34.9528276 106.884904 32.1598774 107.746575 29.0226513 108.621977 25.9202452L108.621977 25.9202452 108.621977 25.9202452zM120.780996 13.0667893C121.781456 20.3412107 117.942927 28.3699004 115.299065 35.3520307 117.994912 35.5952797 120.357272 35.3142682 120.527448 35.515341 120.70449 35.7762452 118.720736 43.8495632 118.029241 43.8701609 115.889533 43.926069 108.79951 43.9849195 105.842759 43.9849195 96.195678 43.9849195 87.170452 44.6136398 82.5678465 39.8163372 80.6988505 37.8674023 79.40659 34.5251801 79.093701 32.1736092 78.572383 28.2477854 79.2256245 23.9261916 80.1358465 20.3622989 80.9592645 17.1451341 82.015142 14.1089349 83.6099925 11.3297165 87.663816 4.25342529 94.7160765-.998988505 106.537686.213333333 108.830406.449716475 112.123586 1.4536092 114.180414 2.64484291 114.322636 2.72870498 114.819923 3.1244751 114.934192 3.19411494 117.71341 4.96257471 120.245946 9.18314175 120.780996 13.0667893L120.780996 13.0667893 120.780996 13.0667893zM78.0966745 9.2871111C77.513073 11.944705 76.9294715 14.9568736 76.314483 17.5830805L66.5874635 17.5830805C67.3412415 14.6719387 67.917977 11.7779617 68.671755 9.2454253 71.78446 9.2454253 74.678437 9.2871111 78.0966745 9.2871111M66.240245 20.01459L75.6195555 20.01459C74.393502 26.8030038 71.9654255 37.7526437 70.061609 45.3742835 68.869885 50.1441225 68.0744215 53.625134 64.850391 56.1434485 64.562023 56.3695325 64.39577 56.2621305 64.155954 56.491157 63.561563 57.057594 60.813732 57.714268 59.2924445 57.880521 56.8187585 58.148291 54.0223755 57.915341 50.9827435 57.8530575 51.778207 54.9453485 52.6781305 51.4540385 53.3867895 48.8484291 60.796567 49.7449195 60.9843985 42.7412107 62.418881 35.9949732 63.249165 32.0971034 65.7645365 21.5780536 66.240245 20.01459"/>
    <g fill="#21609B" transform="translate(0 4.414)">
      <path d="M44.3542069,33.3182529 L44.1531341,33.8390805 C40.7275402,40.5088123 34.6585747,44.6013793 26.0016552,44.7818544 C21.9546973,44.8652261 18.0985134,43.8270038 15.5797088,42.6975632 C10.143387,40.2552644 5.57118775,35.7257318 3.07396169,30.8862529 C-0.50807663,23.948751 -1.15396169,14.2982375 6.29406895,7.090023 C6.4088276,7.090023 5.39071265,8.65299615 5.50547125,8.65299615 L5.3004751,9.31996935 C-0.066697318,26.1232797 16.4688429,40.5230345 32.5428966,38.8761992 C36.4059464,38.4804291 41.3322299,36.364751 44.3542069,33.3182529"/>
      <path d="M34.6271877,26.3699617 C38.6712031,26.3979157 42.8952031,24.5078314 45.3963525,21.8541609 C43.208092,27.4091648 36.8718467,30.9799234 28.3743142,29.8441073 C21.2597701,28.8921992 14.4821456,21.7325364 13.7837854,14.5586513 C13.2732567,9.3376245 15.0932107,6.2214866 18.0916475,2.44180843 C17.0495019,4.41869732 16.6601073,5.9434176 16.5630038,6.91592335 C15.4237548,18.2098391 25.5847969,26.3111111 34.6271877,26.3699617"/>
      <path d="M44.9902835,12.3424368 C44.3615632,13.7842759 40.7417625,16.5075862 39.1434789,16.8479387 C32.8140996,18.1961073 28.7602759,15.194728 26.6372414,11.779433 C26.32141,11.2689042 25.7378084,9.8761073 25.6333487,9.52153255 C24.809931,6.7217165 25.1885364,2.4869272 27.6450575,0.294743295 C26.9050115,2.37903448 26.7971188,4.80024521 27.1865134,6.37400765 C27.4224061,7.3259157 28.141364,8.9869732 28.8608123,10.0320613 C30.1702375,11.9358774 31.0005211,12.3983448 32.6821762,13.4091034 C33.439387,13.8642146 34.2520153,14.2290881 34.6031571,14.3296245 C36.1975172,14.7984674 39.5637701,16.0353103 44.9902835,12.3424368"/>
    </g>
  </g>
</svg>
