<svg xmlns="http://www.w3.org/2000/svg" width="256" height="73" viewBox="0 0 256 73">
  <g fill="none">
    <path fill="#8E714E" d="M238.356721,30.2313119 C238.126192,30.2775041 237.895662,30.7851871 237.895662,31.0619089 C237.84947,32.9074401 237.803278,37.7986374 237.803278,41.1205935 C237.803278,41.212978 237.941423,41.3973153 238.08,41.3973153 C238.77202,41.4435075 240.433214,41.4896998 241.863447,41.4896998 C243.847555,41.4896998 245.001065,41.212978 245.647325,40.9362562 C247.308087,40.1056593 248.092492,38.3058886 248.092492,36.3217807 C248.092492,31.8463136 244.954873,30.1389274 240.294637,30.1389274 C239.971723,30.0931669 239.049173,30.0931669 238.356721,30.2313119 L238.356721,30.2313119 L238.356721,30.2313119 Z M250.261369,50.856364 C250.261369,46.2885126 246.892789,43.7505294 240.80232,43.7505294 C240.525598,43.7505294 238.587683,43.7043372 238.126192,43.7967217 C237.987615,43.8429139 237.803278,43.9352984 237.803278,44.0738751 C237.803278,47.349639 237.757086,52.5637505 237.895662,54.593619 C237.987615,55.470408 238.633875,56.7163035 239.41828,57.0854095 C240.248445,57.5469005 242.1406,57.638853 243.432256,57.638853 C247.077558,57.638853 250.261369,55.6089845 250.261369,50.856364 L250.261369,50.856364 L250.261369,50.856364 Z M228.944296,27.6937605 C229.405356,27.6937605 230.789828,27.8319055 234.342745,27.8319055 C237.710893,27.8319055 240.387022,27.7399527 243.663217,27.7399527 C247.677194,27.7399527 253.214219,29.1701854 253.214219,35.1682697 C253.214219,38.1215514 251.137727,40.4747655 248.415406,41.6282765 C248.277261,41.6744687 248.277261,41.7664215 248.415406,41.8126137 C252.291237,42.7817874 255.70601,45.1811938 255.70601,49.7028532 C255.70601,54.13256 252.937497,56.946833 248.923089,58.7004115 C246.47749,59.761538 243.432256,60.130644 240.340829,60.130644 C237.987615,60.130644 231.666617,59.8539225 228.159892,59.946307 C227.790786,59.80773 228.482806,58.146536 228.80572,57.8698145 C229.636317,57.823622 230.282145,57.77743 231.158934,57.500708 C232.404829,57.177794 232.542974,56.808688 232.727743,54.9169645 C232.820128,53.301963 232.820128,47.5801686 232.820128,43.5199999 C232.820128,37.9367824 232.86632,34.1533355 232.820128,32.3078043 C232.773936,30.8775716 232.266253,30.4160809 231.251318,30.1389274 C230.466914,30.0007824 229.174826,29.8160134 228.1137,29.6778684 C227.882738,29.4469072 228.667143,27.8780977 228.944296,27.6937605 L228.944296,27.6937605 L228.944296,27.6937605 Z M202.320728,56.3933895 C203.428479,57.269747 205.596924,57.638853 207.534839,57.638853 C210.02663,57.638853 212.51799,57.177794 214.917396,55.0089175 C217.362995,52.79428 219.069949,49.3799392 219.069949,43.9352984 C219.069949,38.7211871 217.085841,34.4762495 213.025673,31.9848903 C210.718651,30.5542259 207.765369,29.9545901 204.351028,29.9545901 C203.336094,29.9545901 202.36692,30.0007824 201.767285,30.2775041 C201.628708,30.3698886 201.305794,30.7851871 201.305794,31.0157166 C201.213409,31.9386981 201.213409,39.0441011 201.213409,43.1970859 C201.213409,47.4882158 201.213409,53.4863 201.305794,54.1783205 C201.305794,54.8707725 201.628708,55.9318985 202.320728,56.3933895 L202.320728,56.3933895 L202.320728,56.3933895 Z M191.846745,27.6937605 C192.723534,27.6937605 196.091683,27.8319055 197.706684,27.8319055 C200.613774,27.8319055 202.689834,27.6937605 208.180667,27.6937605 C212.794711,27.6937605 216.670543,28.9396559 219.439055,31.2924384 C222.807204,34.1995277 224.560782,38.2139358 224.560782,43.1047014 C224.560782,50.0719595 221.376971,54.0863675 218.19316,56.3933895 C215.00978,58.7466035 210.856796,60.130644 204.951096,60.130644 C201.813477,60.130644 196.415028,60.0382595 191.93913,59.9920675 L191.892937,59.9920675 C191.662408,59.5772005 192.262044,57.962199 192.63115,57.9160065 C193.830853,57.77743 194.153767,57.7312375 194.753834,57.500708 C195.722576,57.131602 195.907345,56.623919 196.045922,54.9169645 C196.184067,51.7331535 196.137875,47.9035143 196.137875,43.5661922 C196.137875,40.4747655 196.184067,34.4300573 196.091683,32.4921416 C195.953538,30.8775716 195.261517,30.4622731 193.877045,30.1851196 C193.185025,30.0469746 192.262044,29.8622057 190.970388,29.7240606 C190.785619,29.4007149 191.616216,27.9704822 191.846745,27.6937605 L191.846745,27.6937605 L191.846745,27.6937605 Z"/>
    <path fill="#442D22" d="M136.016728,58.1927285 C134.863217,58.0541515 134.03262,57.8698145 133.017254,57.4083235 C132.879109,57.315939 132.648148,56.85488 132.648148,56.670111 C132.555764,55.0551095 132.555764,50.4410655 132.555764,47.349639 C132.555764,44.8578481 132.140897,42.689403 131.079339,41.1667858 C129.833443,39.4132073 128.034104,38.3982731 125.727082,38.3982731 C123.696782,38.3982731 120.974462,39.7827453 118.713632,41.720661 C118.66744,41.7664215 118.298334,42.0897672 118.344526,41.5820842 C118.344526,41.0744013 118.43691,40.059467 118.483103,39.3674468 C118.529295,38.7211871 118.160189,38.3982731 118.160189,38.3982731 C116.683332,39.1364856 112.530779,40.1056593 111.008161,40.2438043 C109.900843,40.4747655 109.624121,41.535892 110.777632,41.9049982 L110.823824,41.9049982 C112.069288,42.2741045 112.899885,42.689403 113.545713,43.1047014 C114.007204,43.4738077 113.961011,43.9814906 113.961011,44.3967891 C114.007204,47.857322 114.007204,53.163386 113.869059,56.0704755 C113.822866,57.2239865 113.499952,57.638853 112.669356,57.823622 L112.761308,57.77743 C112.11548,57.9160065 111.607797,58.0541515 110.823392,58.146536 C110.546671,58.423258 110.546671,59.9001145 110.823392,60.2230285 C111.331076,60.2230285 114.007204,60.084452 116.222273,60.084452 C119.267507,60.084452 120.836317,60.2230285 121.620721,60.2230285 C121.943635,59.8539225 122.03602,58.46945 121.851251,58.146536 C120.974462,58.100344 120.328634,58.008391 119.728998,57.823622 C118.898401,57.638853 118.66744,57.2239865 118.621248,56.2548125 C118.529295,53.809214 118.529295,48.6417267 118.529295,45.1350016 C118.529295,44.1658279 118.806017,43.7043372 119.082738,43.4276154 C120.143865,42.5050657 121.851251,41.858806 123.373868,41.858806 C124.850293,41.858806 125.819467,42.3202967 126.557679,42.9203642 C127.572614,43.7505294 127.895528,44.9502326 128.034104,45.8270218 C128.264634,47.8111298 128.172681,51.7331535 128.172681,55.147494 C128.172681,56.993025 128.034104,57.454516 127.342084,57.6850455 C127.01917,57.823622 126.188573,58.008391 125.219399,58.100344 C124.896485,58.423258 124.98887,59.8539225 125.219399,60.1768365 C126.557679,60.1768365 128.126489,60.0382595 130.433511,60.0382595 C133.293976,60.0382595 135.139939,60.1768365 135.878151,60.1768365 C136.108681,59.9001145 136.201065,58.5618345 136.016296,58.1927285 L136.016728,58.1927285 L136.016728,58.1927285 Z M148.797733,40.56715 C146.352135,40.56715 144.829517,42.4588734 144.829517,45.4117234 C144.829517,48.4107655 146.167366,51.8712985 149.951244,51.8712985 C150.597072,51.8712985 151.796775,51.5945765 152.350219,50.9487485 C153.227008,50.1181515 153.827076,48.4569578 153.827076,46.703811 C153.827076,42.8741719 151.93492,40.56715 148.797733,40.56715 L148.797733,40.56715 L148.797733,40.56715 Z M148.474388,60.961241 C147.551838,60.961241 146.905578,61.237963 146.490711,61.468924 C144.552364,62.714388 143.676006,63.914091 143.676006,65.3447555 C143.676006,66.6826035 144.183258,67.74373 145.291008,68.6667115 C146.628856,69.8202225 148.474388,70.3740975 150.827602,70.3740975 C155.53403,70.3740975 157.610522,67.8361145 157.610522,65.3447555 C157.610522,63.591177 156.733733,62.437666 154.934394,61.791838 C153.642307,61.237963 151.289092,60.961241 148.474388,60.961241 L148.474388,60.961241 L148.474388,60.961241 Z M148.797733,72.9578415 C145.983028,72.9578415 143.952728,72.357774 142.199581,71.0199255 C140.492195,69.727838 139.753983,67.7899225 139.753983,66.452074 C139.753983,66.082968 139.846367,65.067602 140.676964,64.145052 C141.184216,63.591177 142.291534,62.5300505 144.921902,60.7307115 C145.013855,60.6845195 145.060047,60.638327 145.060047,60.5459425 C145.060047,60.453558 144.967662,60.3611735 144.87571,60.315413 C142.706833,59.484816 142.061005,58.146536 141.876236,57.4083235 L141.876236,57.315939 C141.830475,57.0392175 141.738091,56.7624955 142.153389,56.485342 C142.476303,56.2548125 142.937794,55.978091 143.445045,55.655177 C144.22945,55.1936865 145.060047,54.6860035 145.56773,54.270705 C145.660114,54.1783205 145.660114,54.0863675 145.660114,53.993983 C145.660114,53.9015985 145.56773,53.809214 145.475345,53.7634535 C142.245774,52.7018955 140.630772,50.302489 140.630772,46.703811 C140.630772,44.3505969 141.691899,42.2279122 143.583622,40.890064 C144.87571,39.8746981 148.105281,38.6292343 150.227966,38.6292343 L150.366543,38.6292343 C152.534988,38.6749949 153.734691,39.1364856 155.441646,39.736553 C156.364627,40.059467 157.241416,40.1976121 158.441119,40.1976121 C160.240458,40.1976121 161.024863,39.6441686 161.670691,38.9983406 C161.716883,39.0902933 161.809268,39.3212546 161.85546,39.9208903 C161.901652,40.5209578 161.716883,41.3973153 161.255393,42.043575 C160.886286,42.5508262 160.056121,42.9203642 159.225524,42.9203642 L158.994563,42.9203642 C158.163966,42.8279797 157.79486,42.7355952 157.79486,42.7355952 L157.610522,42.8279797 C157.56433,42.9203642 157.610522,43.012317 157.656715,43.1508937 L157.702907,43.2432782 C157.79486,43.6585766 157.979629,44.9040404 157.979629,45.2273861 C157.979629,49.010833 156.457011,50.671595 154.84201,51.9174905 C153.2732,53.0710015 151.473861,53.809214 149.443561,53.993983 C149.397369,53.993983 149.213032,53.993983 148.797733,54.0401755 C148.566772,54.0401755 148.243858,54.0863675 148.197666,54.0863675 L148.151474,54.0863675 C147.782367,54.1783205 146.859818,54.639811 146.859818,55.424216 C146.859818,56.116236 147.275116,56.946833 149.258792,57.0854095 C149.674091,57.131602 150.089389,57.131602 150.55088,57.177794 C153.180816,57.3621315 156.457011,57.5930925 157.979629,58.100344 C160.101882,58.8847485 161.440162,60.776472 161.440162,63.0377335 C161.440162,66.452074 158.994563,69.635885 154.934394,71.6195615 C152.950286,72.4963505 150.966178,72.9578415 148.797733,72.9578415 L148.797733,72.9578415 L148.797733,72.9578415 Z M175.097956,40.7976795 C174.128782,40.7976795 173.251993,41.028209 172.606165,41.4896998 C170.806826,42.5970185 169.883845,44.8120876 169.883845,48.0416593 C169.883845,54.0863675 172.929079,58.331305 177.266401,58.331305 C178.558489,58.331305 179.573423,57.962199 180.450212,57.2239865 C181.78806,56.116236 182.480512,53.9015985 182.480512,50.810172 C182.480512,44.8120876 179.481038,40.7976795 175.097956,40.7976795 L175.097956,40.7976795 L175.097956,40.7976795 Z M175.928553,60.5459425 C168.084506,60.5459425 165.269801,54.778388 165.269801,49.3799392 C165.269801,45.5964923 166.792418,42.689403 169.837652,40.6129105 C172.006529,39.2750623 174.590273,38.5368498 176.897295,38.5368498 C182.895379,38.5368498 187.094556,42.8279797 187.094556,49.010833 C187.094556,53.2095785 185.433362,56.5315345 182.249551,58.5618345 C180.726934,59.576769 178.096998,60.5459425 175.928121,60.5459425 L175.928553,60.5459425 L175.928553,60.5459425 Z M93.705497,40.7976795 C92.7363235,40.7976795 91.859966,41.028209 91.2137065,41.4896998 C89.4143675,42.5970185 88.491386,44.8120876 88.491386,48.0416593 C88.491386,54.0863675 91.5366205,58.331305 95.8739425,58.331305 C97.16603,58.331305 98.1809645,57.962199 99.0577535,57.2239865 C100.395601,56.116236 101.088054,53.9015985 101.088054,50.810172 C101.088054,44.8120876 98.134772,40.7976795 93.705497,40.7976795 L93.705497,40.7976795 L93.705497,40.7976795 Z M94.536094,60.5459425 C86.692047,60.5459425 83.877342,54.778388 83.877342,49.3799392 C83.877342,45.5964923 85.399959,42.689403 88.4451935,40.6129105 C90.6140705,39.2750623 93.197814,38.5368498 95.504836,38.5368498 C101.503352,38.5368498 105.702097,42.8279797 105.702097,49.010833 C105.702097,53.2095785 104.040903,56.5315345 100.857092,58.5618345 C99.3806675,59.576769 96.7507315,60.5459425 94.536094,60.5459425 L94.536094,60.5459425 L94.536094,60.5459425 Z M41.7970722,60.084452 C41.7046877,59.946307 41.6123032,59.5310085 41.6584955,59.0233255 C41.6584955,58.654219 41.75088,58.423258 41.7970722,58.331305 C42.7658142,58.1927285 43.2734972,58.0541515 43.8269407,57.9160065 C44.7499221,57.6850455 45.1190284,57.177794 45.1652206,56.024283 C45.3037973,53.2557705 45.3037973,47.995467 45.2576051,44.3505969 L45.2576051,44.2582124 C45.2576051,43.8429139 45.2576051,43.3352309 44.7499221,42.9661247 C44.0117096,42.5050657 43.1349204,42.0897672 41.9814095,41.7664215 C41.566111,41.6282765 41.2893892,41.3973153 41.3355815,41.1205935 C41.3355815,40.8438718 41.6123032,40.5209578 42.2123707,40.4285733 C43.7349879,40.2899965 47.702772,39.3212546 49.2715815,38.6292343 C49.363966,38.7211871 49.5025427,38.9983406 49.5025427,39.3674468 L49.4563505,39.8746981 C49.4101582,40.382381 49.363966,40.9824485 49.363966,41.5820842 C49.363966,41.7664215 49.5487349,41.9049982 49.7330722,41.9049982 C49.8254567,41.9049982 49.9178412,41.858806 50.0102255,41.8126137 C52.9630755,39.5055918 55.6392035,38.6749949 57.023244,38.6749949 C59.2845055,38.6749949 61.0376525,39.736553 62.375932,41.9511905 C62.467885,42.0897672 62.5602695,42.1355277 62.698846,42.1355277 C62.7912305,42.1355277 62.9293755,42.0897672 62.975568,41.9973827 C65.6978885,39.9208903 68.420209,38.6749949 70.219548,38.6749949 C74.5106775,38.6749949 77.0486605,41.858806 77.0486605,47.2572546 C77.0486605,48.7798718 77.0486605,50.7639795 77.0024685,52.5637505 C77.0024685,54.1783205 76.9562765,55.655177 76.9562765,56.7163035 C76.9562765,56.946833 77.2791905,57.6850455 77.786873,57.823622 C78.432701,58.146536 79.3094905,58.285113 80.4630015,58.46945 L80.5091935,58.46945 C80.601578,58.792364 80.416809,59.9920675 80.232472,60.2230285 C79.9553185,60.2230285 79.54002,60.2230285 79.078961,60.1768365 C78.2021715,60.130644 76.9562765,60.084452 75.572236,60.084452 C72.7113385,60.084452 71.2349135,60.130644 69.8042495,60.2230285 C69.7122965,59.8539225 69.666104,58.7466035 69.8042495,58.46945 C70.634846,58.331305 71.0501445,58.1927285 71.5578275,58.0541515 C72.480809,57.77743 72.7113385,57.3621315 72.757531,56.162428 C72.757531,55.2860705 72.941868,47.8111298 72.6651465,46.0113591 C72.3884245,44.1658279 71.0039525,41.9973827 67.958718,41.9973827 C66.805207,41.9973827 65.005868,42.4588734 63.2522895,43.7967217 C63.160337,43.8891062 63.0679525,44.1196357 63.0679525,44.2582124 L63.0679525,44.3044046 C63.2522895,45.2731466 63.2522895,46.3808971 63.2522895,48.0878515 L63.2522895,51.0868935 C63.2522895,53.163386 63.2060975,55.101302 63.2522895,56.5777265 C63.2522895,57.5930925 63.852357,57.823622 64.36004,58.008391 C64.636762,58.0541515 64.821099,58.100344 65.0520605,58.146536 C65.467359,58.2389205 65.8826575,58.331305 66.5284855,58.46945 C66.62087,58.654219 66.62087,59.253855 66.482293,59.761538 C66.436101,60.0382595 66.3437165,60.1768365 66.297956,60.2230285 C64.7291465,60.1768365 63.1141445,60.130644 60.7609305,60.130644 C60.0689105,60.130644 58.869207,60.1768365 57.853841,60.1768365 C57.023244,60.1768365 56.2388395,60.2230285 55.7777805,60.2230285 C55.731588,60.130644 55.6392035,59.80773 55.6392035,59.300047 C55.6392035,58.8847485 55.731588,58.5618345 55.8239725,58.46945 C56.054502,58.423258 56.2388395,58.3774975 56.4698005,58.3774975 C57.023244,58.285113 57.484735,58.1927285 57.9462255,58.100344 C58.7306305,57.8698145 59.007352,57.454516 59.0535445,56.4395815 C59.192121,54.13256 59.330266,47.534408 59.007352,45.8732141 C58.4539085,43.1970859 56.9312915,41.858806 54.485693,41.858806 C53.05546,41.858806 51.2556895,42.5508262 49.7792645,43.6585766 C49.5487349,43.8429139 49.363966,44.3044046 49.363966,44.7197031 L49.363966,47.4420235 C49.363966,50.7639795 49.363966,54.9169645 49.4101582,56.7163035 C49.4563505,57.269747 49.6406877,57.9160065 50.702246,58.146536 C50.9327755,58.1927285 51.3018815,58.285113 51.7633725,58.331305 L52.5939695,58.46945 C52.686354,58.7466035 52.6401615,59.8539225 52.4553925,60.2230285 C51.993902,60.2230285 51.4404585,60.1768365 50.7941985,60.1768365 C49.8254567,60.130644 48.5795612,60.084452 47.1955208,60.084452 C45.5805191,60.084452 44.4270081,60.130644 43.5040267,60.1768365 C42.8581987,60.084452 42.3505157,60.084452 41.7970722,60.084452 L41.7970722,60.084452 L41.7970722,60.084452 Z"/>
    <path fill="#FFF" d="M17.5267181,71.1585025 L15.6349946,70.512243 C15.6349946,70.512243 15.8659559,60.8688565 12.405423,60.1768365 C10.098401,57.500708 12.7745292,-53.329592 21.0796355,59.80773 C21.0796355,59.80773 18.21917,61.237963 17.711487,63.6835615 C17.1576118,66.082968 17.5267181,71.1585025 17.5267181,71.1585025 L17.5267181,71.1585025 L17.5267181,71.1585025 Z"/>
    <path fill="#A6A385" d="M17.5267181,71.1585025 L15.6349946,70.512243 C15.6349946,70.512243 15.8659559,60.8688565 12.405423,60.1768365 C10.098401,57.500708 12.7745292,-53.329592 21.0796355,59.80773 C21.0796355,59.80773 18.21917,61.237963 17.711487,63.6835615 C17.1576118,66.082968 17.5267181,71.1585025 17.5267181,71.1585025 L17.5267181,71.1585025 L17.5267181,71.1585025 Z"/>
    <path fill="#FFF" d="M18.5420839,61.8380305 C18.5420839,61.8380305 35.1065359,50.9487485 31.2307045,28.2933963 C27.4934499,11.8213288 18.680229,6.42288025 17.711487,4.34638786 C16.6503605,2.8699629 15.6349946,0.286219224 15.6349946,0.286219224 L16.3274466,46.1037437 C16.3274466,46.1499359 14.8967821,60.130644 18.5420839,61.8380305"/>
    <path fill="#499D4A" d="M18.5420839,61.8380305 C18.5420839,61.8380305 35.1065359,50.9487485 31.2307045,28.2933963 C27.4934499,11.8213288 18.680229,6.42288025 17.711487,4.34638786 C16.6503605,2.8699629 15.6349946,0.286219224 15.6349946,0.286219224 L16.3274466,46.1037437 C16.3274466,46.1499359 14.8967821,60.130644 18.5420839,61.8380305"/>
    <path fill="#FFF" d="M14.666253,62.437666 C14.666253,62.437666 -0.883264755,51.825106 0.0397166948,33.1384013 C0.9160742,14.4512648 11.8977403,5.2693693 14.0199933,3.60817538 C15.4044654,2.13175042 15.4506577,1.57787521 15.5430422,0.101450253 C16.5117841,2.17794266 16.3274469,31.1542934 16.4655919,34.5686341 C16.8808904,47.7187454 15.7273794,59.946307 14.666253,62.437666 L14.666253,62.437666 L14.666253,62.437666 Z"/>
    <path fill="#58AA50" d="M14.666253,62.437666 C14.666253,62.437666 -0.883264755,51.825106 0.0397166948,33.1384013 C0.9160742,14.4512648 11.8977403,5.2693693 14.0199933,3.60817538 C15.4044654,2.13175042 15.4506577,1.57787521 15.5430422,0.101450253 C16.5117841,2.17794266 16.3274469,31.1542934 16.4655919,34.5686341 C16.8808904,47.7187454 15.7273794,59.946307 14.666253,62.437666 L14.666253,62.437666 L14.666253,62.437666 Z"/>
  </g>
</svg>
