<svg xmlns="http://www.w3.org/2000/svg" width="256" height="54" viewBox="0 0 256 54">
  <path fill="#090" d="M48.0871567 53.575302C46.6423595 53.575302 45.21979 53.0129425 44.1573084 51.948238L11.2715018 19.0602089 11.2715018 48.0183899C11.2715018 51.088028 8.7842279 53.575302 5.7145896 53.575302 2.64717406 53.575302.157677384 51.088028.157677384 48.0183899L.157677384 5.64360005C.157677384 3.39416199 1.51356397 1.36922317 3.58962637.50901316 5.663466-.353419617 8.05516105.122252069 9.64443795 1.71375173L42.5302445 34.601781 42.5302445 5.64360005C42.5302445 2.57396174 45.0175184.0866878305 48.0871567.0866878305 51.156795.0866878305 53.644069 2.57396174 53.644069 5.64360005L53.644069 48.0183899C53.644069 50.265605 52.2881825 52.292767 50.21212 53.152977 49.5252856 53.4374905 48.8051098 53.575302 48.0871567 53.575302M73.820106.140034188L72.2930665 2.98961878 60.4835165 24.4526365 58.956477 27.1621869 60.4835165 29.8695146 72.2930665 50.6390295 73.8890115 53.4863915 104.801003 53.4863915 106.328042 50.361184 115.150196 32.579065 119.10894 24.5215423 110.148975 24.5215423 87.574575 24.590448C84.6383025 24.5504382 81.937643 27.2110878 81.937643 30.1473602 81.937643 33.0836326 84.6383025 35.746505 87.574575 35.7042724L101.18901 35.6353667 97.8548625 42.3725671 80.350589 42.3725671 71.6662465 27.0910585 80.419495 11.2538586 99.0395965 11.2538586 103.380656 20.1627003 114.565609 20.1627003 107.514999 3.26746439 105.985737.140034188 73.820106.140034188M130.116072.0711284765C127.20425.106692715 124.590279 2.78734717 124.628066 5.6969464L124.628066 20.1782597 135.74189 20.1782597 135.74189 5.6969464C135.777454 2.74066911 133.070127.0333414733 130.116072.0711284765M147.92931 53.681995C147.21358 53.681995 146.491181 53.5441835 145.804347 53.2596695 143.728284 52.3994595 142.374621 50.372298 142.374621 48.1250826L142.374621 5.75029275C142.374621 2.68065446 144.861894.193380545 147.931533.193380545 151.001171.193380545 153.488445 2.68065446 153.488445 5.75029275L153.488445 34.7084737 186.374252 1.82044444C187.959083.233390313 190.346332-.246726903 192.429063.615705875 194.505125 1.47591589 195.858789 3.50307747 195.858789 5.75029275L195.858789 48.1250826C195.858789 51.194721 193.371515 53.681995 190.301877 53.681995 187.232239 53.681995 184.744965 51.194721 184.744965 48.1250826L184.744965 19.1669016 151.859158 52.054931C150.798899 53.1174125 149.37633 53.681995 147.92931 53.681995M237.022172 26.8954552L254.308615 9.67125005C256.482479 7.50627705 256.489147 3.98764021 254.321951 1.81155338 252.156978-.362310677 248.640564-.366756207 246.464478 1.7982168L229.151362 19.0513179 211.838246 1.7982168C209.662159-.368978972 206.145745-.362310677 203.980772 1.81155338 201.813576 3.98764021 201.820245 7.50627705 203.991886 9.67125005L221.278329 26.8954552 204.04301 44.0707595C201.866923 46.2379552 201.862477 49.7543693 204.029673 51.9282335 205.114382 53.019611 206.539175 53.5641885 207.96619 53.5641885 209.384314 53.5641885 210.802438 53.0240565 211.887147 51.94157L229.151362 34.7395925 246.413354 51.94157C247.500286 53.0240565 248.916187 53.5641885 250.336534 53.5641885 251.763549 53.5641885 253.186119 53.019611 254.273051 51.9282335 256.438024 49.7543693 256.433578 46.2379552 254.259714 44.0707595L237.022172 26.8954552M130.116072 53.5241785C127.20425 53.4886145 124.590279 50.80796 124.628066 47.8983606L124.628066 24.637126 135.74189 24.637126 135.74189 47.8983606C135.777454 50.852415 133.070127 53.559743 130.116072 53.5241785"/>
</svg>
