<svg xmlns="http://www.w3.org/2000/svg" width="249" height="256" viewBox="0 0 249 256">
  <g fill="none">
    <path fill="#000" d="M247.280413,153.295144 C245.792106,148.787794 241.893037,145.647786 236.850219,144.893886 C234.47271,144.539008 231.749495,144.690361 228.527504,145.354826 C222.911377,146.513482 218.744574,146.954355 215.703748,147.040352 C227.181376,127.660816 236.514832,105.560935 241.887877,84.7578753 C250.575789,51.1207402 245.933139,35.7967869 240.507924,28.8649182 C226.149995,10.5190577 205.201889,0.662744208 179.928747,0.36061082 C166.447979,0.196071383 154.612032,2.85794107 148.43865,4.77164365 C142.69009,3.75803485 136.508681,3.19160641 130.022846,3.08669103 C117.866993,2.89291287 107.125492,5.54274309 97.9474027,10.9891704 C92.8650256,9.27153923 84.710864,6.84931234 75.2931312,5.30310029 C53.142798,1.66660676 35.2911291,4.5004689 22.233463,13.7249968 C6.42162447,24.894186 -0.9086934,44.2995199 0.447180348,71.4026622 C0.877161453,80.0080174 5.6912299,106.18928 13.2703635,131.019829 C17.6263587,145.291188 22.2713012,157.143187 27.0761968,166.248467 C33.889964,179.15994 41.1807236,186.763726 49.365844,189.493819 C53.954029,191.022832 62.289356,192.092625 71.0569574,184.792119 C72.1680285,186.137101 73.6500301,187.474628 75.6181969,188.716413 C78.1166738,190.292437 81.1724062,191.580087 84.2235521,192.343161 C95.2213222,195.092747 105.522523,194.404777 114.310764,190.551572 C114.364655,192.114411 114.406506,193.607879 114.442051,194.897249 C114.500528,196.98925 114.557859,199.039973 114.634682,200.957689 C115.155247,213.927065 116.037567,224.010983 118.651853,231.066112 C118.79518,231.454815 118.988384,232.045896 119.192482,232.672522 C120.496185,236.666187 122.677622,243.35096 128.225525,248.586983 C133.971792,254.009904 140.921434,255.673072 147.286301,255.673072 C150.47848,255.673072 153.524466,255.254556 156.195509,254.681821 C165.718731,252.641418 176.533616,249.531794 184.356978,238.392417 C191.753227,227.86132 195.349015,212.000176 195.99972,187.007382 C196.083996,186.301067 196.161967,185.626283 196.23707,184.983031 C196.287521,184.549037 196.339119,184.105296 196.391289,183.662703 L198.134146,183.815775 L198.583047,183.84616 C208.282274,184.288181 220.141726,182.231152 227.425033,178.84806 C233.180473,176.177018 251.622649,166.441099 247.280413,153.295144"/>
    <path fill="#336791" d="M230.696329,155.852098 C201.857782,161.800743 199.875283,152.036732 199.875283,152.036732 C230.324252,106.855464 243.052839,49.5045845 232.068255,35.4682813 C202.101439,-2.82010274 150.227372,15.2878349 149.361677,15.7579475 L149.083049,15.8078254 C143.385512,14.6250906 137.009179,13.9204949 129.842828,13.8035401 C116.793761,13.5896961 106.895596,17.2244697 99.3846856,22.9202861 C99.3846856,22.9202861 6.8464458,-15.2018386 11.15027,70.8660458 C12.0658431,89.1763611 37.3940234,209.40997 67.6044958,173.093767 C78.6464106,159.81423 89.3151017,148.585991 89.3151017,148.585991 C94.6141888,152.106102 100.957843,153.901704 107.608218,153.256732 L108.124768,152.818151 C107.964242,154.466986 108.037625,156.079701 108.331732,157.988817 C100.549074,166.684181 102.836001,168.210901 87.2781379,171.4134 C71.5356697,174.657751 80.7837033,180.433831 86.8217846,181.943351 C94.1417829,183.773924 111.076732,186.366996 122.519389,170.348767 L122.063036,172.176473 C125.112462,174.618767 127.253768,188.063415 126.894877,200.2508 C126.535986,212.438758 126.296343,220.80619 128.699078,227.341903 C131.101812,233.877616 133.49652,248.582969 153.948715,244.200602 C171.038457,240.53831 179.894348,231.047766 181.126387,215.217008 C182.000682,203.962397 183.979168,205.626137 184.104149,195.564006 L185.691066,190.800389 C187.521066,175.544085 185.981734,170.622235 196.510538,172.911455 L199.069212,173.136191 C206.818618,173.488776 216.961012,171.889819 222.913671,169.123034 C235.731694,163.174389 243.33376,153.242399 230.695182,155.852098 L230.696329,155.852098"/>
    <path fill="#FFF" d="M104.801301 79.054606C102.203069 78.6928485 99.8490657 79.0276604 98.658304 79.9289008 97.9881076 80.4362785 97.7811433 81.0239194 97.7255321 81.4286749 97.5758982 82.5001878 98.3269324 83.6846424 98.787872 84.2957889 100.092721 86.0254596 101.999544 87.2145007 103.886874 87.4765025 104.160342 87.5143408 104.432091 87.5326866 104.702692 87.5326866 107.850154 87.5326866 110.710961 85.0823677 110.963217 83.2735805 111.278537 81.00844 107.990041 79.4983464 104.801301 79.054606M190.894985 79.1262695L190.894411 79.1262695C190.646742 77.3507342 187.486668 76.8445031 184.488266 77.261298 181.49445 77.6786664 178.590645 79.0299536 178.833155 80.8095022 179.02808 82.193468 181.525983 84.5560708 184.484253 84.5554976 184.733642 84.5554976 184.985898 84.5388716 185.239873 84.5033264 187.214346 84.2298585 188.663096 82.9760336 189.351065 82.2530921 190.399646 81.1523404 191.005633 79.9243144 190.894985 79.1262695"/>
    <path fill="#FFF" d="M240.292934,155.176168 C239.193328,151.85098 235.654297,150.780614 229.773875,151.995454 C212.31435,155.598696 206.061851,153.102512 204.008262,151.590699 C217.579612,130.91606 228.743641,105.926131 234.766243,82.6091164 C237.619598,71.5643351 239.195622,61.3072791 239.324043,52.9472999 C239.466224,43.7697832 237.903958,37.0271061 234.680247,32.9078872 C221.683924,16.3014436 202.610536,7.39395507 179.521698,7.14915249 C163.649088,6.97085366 150.238264,11.0333151 147.638312,12.175345 C142.163219,10.8137381 136.194509,9.97785484 129.697207,9.87121959 C117.780998,9.678588 107.481517,12.5313693 98.9535583,18.3458605 C95.2494142,16.9676277 85.676315,13.6814255 73.969936,11.795815 C53.7298655,8.5365582 37.6468523,11.0057964 26.1692233,19.1370256 C12.4740385,28.8396926 6.15159633,46.1834104 7.37675583,70.6854537 C7.78896438,78.9296247 12.4855047,104.288764 19.8983789,128.575243 C29.6555101,160.540039 40.2611374,178.635936 51.4211536,182.357853 C52.7271496,182.793567 54.2338033,183.098567 55.8941038,183.098567 C59.9651648,183.098567 64.9558122,181.263408 70.1488373,175.020656 C78.7742582,164.643778 86.8275177,155.948413 89.7961072,152.788912 C94.1830611,155.144062 99.0017164,156.458658 103.931593,156.590518 C103.940192,156.719513 103.953378,156.848507 103.964845,156.976928 C102.975888,158.149917 102.164657,159.177858 101.473247,160.055593 C98.0580509,164.390949 97.3471486,165.293336 86.3533918,167.55733 C83.2265692,168.202302 74.9199076,169.914199 74.7989396,175.736144 C74.6665054,182.096998 84.6162682,184.768614 85.7502717,185.051827 C89.7009381,186.040784 93.5065575,186.52867 97.1361716,186.52867 C105.96397,186.528096 113.731722,183.627157 119.940076,178.013897 C119.748591,200.6911 120.694549,223.036932 123.41719,229.845539 C125.646785,235.418668 131.094932,249.039322 148.303922,249.039322 C150.828199,249.039322 153.60817,248.745789 156.665622,248.090498 C174.625072,244.239587 182.423784,236.302135 185.441104,218.802478 C187.055539,209.450102 189.826338,187.11631 191.128894,175.137037 C193.879054,175.994705 197.419804,176.387422 201.24721,176.386849 C209.229952,176.386849 218.44072,174.691003 224.217373,172.009641 C230.706075,168.996334 242.416467,161.600658 240.292934,155.176168 L240.292934,155.176168 Z M197.523573,74.2250581 C197.463949,77.7617961 196.97721,80.9723216 196.461233,84.323881 C195.906271,87.9282693 195.331816,91.6547722 195.187343,96.1787468 C195.044589,100.58118 195.594391,105.158472 196.126421,109.584411 C197.200801,118.524578 198.303272,127.72904 194.034993,136.811388 C193.371675,135.633239 192.73129,134.347883 192.144223,132.924359 C191.613913,131.638428 190.462137,129.572799 188.867767,126.713712 C182.66228,115.585801 168.131212,89.5266524 175.569884,78.892933 C177.785147,75.7271255 183.408153,72.4736017 197.523573,74.2250581 L197.523573,74.2250581 Z M180.414338,14.3109177 C201.101589,14.7678444 217.465523,22.5069309 229.05208,37.3120403 C237.938357,48.6681279 228.153134,100.340391 199.825405,144.917965 C199.545631,144.562513 199.260697,144.203623 198.966016,143.835559 C198.848488,143.688219 198.728667,143.538585 198.607698,143.387232 C205.927697,131.297883 204.496146,119.336956 203.222256,108.731902 C202.698826,104.37992 202.204634,100.2693 202.330189,96.4086433 C202.46033,92.3152232 203.001532,88.8060041 203.52439,85.4120199 C204.168214,81.2291637 204.822359,76.9018339 204.641767,71.7999647 C204.776495,71.2650682 204.830959,70.6327093 204.760442,69.882249 C204.299502,64.9896373 198.714334,50.3490674 187.329581,37.0959031 C181.102881,29.8481417 172.021107,21.7364048 159.621599,16.2653252 C164.955085,15.1599871 172.248711,14.1291791 180.414338,14.3109177 L180.414338,14.3109177 Z M64.6536787,170.451389 C58.9326369,177.32994 54.9813971,176.011905 53.6822809,175.579057 C45.2162396,172.754941 35.3937513,154.862568 26.7333585,126.488975 C19.2396478,101.9382 14.860147,77.2509785 14.5138689,70.3282828 C13.4194236,48.4347916 18.726537,33.1761954 30.2884423,24.9767424 C49.1044154,11.6329955 80.0401226,19.6197512 92.4705897,23.6707465 C92.2917175,23.846752 92.1059657,24.0118648 91.9288135,24.190737 C71.5310832,44.7914183 72.0149552,79.9879516 72.0648331,82.1390037 C72.0631132,82.9691539 72.1324835,84.1444356 72.2282259,85.7611645 C72.5790905,91.6805711 73.2320884,102.698407 71.4875118,115.175886 C69.8656231,126.770469 73.439626,138.119104 81.2916543,146.311677 C82.1046052,147.1596 82.9531013,147.955924 83.8296894,148.705238 C80.3342297,152.448368 72.7384701,160.725217 64.6536787,170.451389 L64.6536787,170.451389 Z M86.4514275,141.366895 C80.122679,134.764105 77.2486853,125.579135 78.5650007,116.165415 C80.4076131,102.984488 79.7270963,91.5051388 79.3618991,85.3380631 C79.3108747,84.4752344 79.2655833,83.719041 79.2386379,83.1222272 C82.2186935,80.4804233 96.0279666,73.0807351 105.875681,75.3372759 C110.370416,76.3669374 113.107963,79.4266829 114.246553,84.6907983 C120.139014,111.941854 115.026825,123.300235 110.919072,132.427301 C110.072296,134.307751 109.272531,136.085007 108.589148,137.924178 L108.059984,139.34541 C106.71959,142.939478 105.472645,146.280719 104.699825,149.453979 C97.9726284,149.43334 91.4277422,146.55992 86.4514275,141.366895 L86.4514275,141.366895 Z M87.4839555,178.118812 C85.5198018,177.628061 83.7528661,176.775552 82.716325,176.068662 C83.5820203,175.66104 85.1230726,175.107225 87.7952618,174.556849 C100.72852,171.893833 102.725353,170.015102 107.087081,164.476945 C108.087504,163.207641 109.220934,161.768064 110.790651,160.014888 C110.791224,160.013742 110.791798,160.013168 110.792371,160.012594 C113.130896,157.39487 114.200114,157.83861 116.139616,158.642961 C117.711627,159.293667 119.24236,161.263553 119.863252,163.431804 C120.156786,164.455733 120.487012,166.399821 119.407472,167.911634 C110.295887,180.668887 97.0192165,180.504921 87.4839555,178.118812 L87.4839555,178.118812 Z M155.167568,241.103018 C139.345983,244.492989 133.744189,236.420238 130.052658,227.191696 C127.66999,221.233304 126.499294,194.366365 127.330018,164.697096 C127.340911,164.302087 127.284726,163.920837 127.175798,163.562519 C127.081202,162.870536 126.935582,162.170527 126.733777,161.465931 C125.497725,157.14892 122.487284,153.537652 118.875442,152.040745 C117.440453,151.446224 114.806101,150.355219 111.640867,151.16473 C112.316224,148.383612 113.48692,145.243604 114.75565,141.84274 L115.288254,140.411762 C115.887934,138.799047 116.639541,137.128428 117.435292,135.360345 C121.733957,125.810178 127.621259,112.730153 121.231739,83.1801313 C118.838178,72.1124176 110.846262,66.7078418 98.7305416,67.9628134 C91.4667272,68.7144204 84.8220858,71.6451715 81.5077914,73.3255376 C80.7951695,73.6867218 80.1433181,74.0352932 79.5344649,74.3752649 C80.4592109,63.223275 83.9546705,42.3829508 97.0283898,29.1974369 C105.259375,20.895935 116.222172,16.7962086 129.579106,17.0169322 C155.896816,17.4480599 172.773288,30.954053 182.297655,42.2086651 C190.504561,51.9073189 194.948847,61.6764896 196.722662,66.9451914 C183.384648,65.5893176 174.313193,68.222522 169.714115,74.7966464 C159.709888,89.0972446 175.187488,116.854532 182.626161,130.194265 C183.990062,132.639424 185.167636,134.752065 185.537993,135.649866 C187.96022,141.520541 191.096215,145.439675 193.386008,148.301056 C194.087737,149.177645 194.768827,150.02786 195.286525,150.770294 C191.246995,151.935256 183.990635,154.625792 184.651659,168.076174 C184.118482,174.825731 180.325476,206.424182 178.39916,217.588211 C175.855965,232.337136 170.428457,237.831149 155.167568,241.103018 L155.167568,241.103018 Z M221.208079,165.52782 C217.077393,167.445535 210.164444,168.883965 203.5972,169.192404 C196.343705,169.532376 192.6516,168.380027 191.783039,167.671418 C191.374843,159.289653 194.495359,158.413639 197.797041,157.486599 C198.315885,157.340405 198.822116,157.198799 199.310575,157.027952 C199.614428,157.275049 199.946947,157.520425 200.310997,157.760641 C206.140968,161.608685 216.539631,162.02376 231.219185,158.993826 C231.273076,158.98236 231.326967,158.972041 231.380285,158.961148 C229.400653,160.81236 226.012401,163.297077 221.208079,165.52782 L221.208079,165.52782 Z"/>
  </g>
</svg>
