<svg xmlns="http://www.w3.org/2000/svg" width="226" height="256" viewBox="0 0 226 256">
  <g fill="none">
    <polygon fill="#FFF" points="112.993 .043 225.986 63.958 225.986 191.832 112.993 255.748 0 191.832 0 63.958"/>
    <path fill="#8ED6FB" d="M205.818004,187.397996 L116.745327,237.839823 L116.745327,198.612029 L172.261184,168.039932 L205.818004,187.397996 Z M211.915367,181.897577 L211.915367,76.4941991 L179.339243,95.2979571 L179.339243,163.093819 L211.915367,181.897577 Z M19.8270918,187.397996 L108.899768,237.797184 L108.899768,198.56939 L53.3839115,168.039932 L19.8270918,187.397996 L19.8270918,187.397996 Z M13.729728,181.897577 L13.729728,76.4941991 L46.305853,95.2979571 L46.305853,163.093819 L13.729728,181.897577 L13.729728,181.897577 Z M17.5245908,69.671974 L108.899768,17.9936187 L108.899768,55.942246 L50.3565491,88.1346207 L49.8875211,88.3904538 L17.5245908,69.671974 L17.5245908,69.671974 Z M208.077866,69.671974 L116.745327,17.9936187 L116.745327,55.942246 L175.245908,88.1772596 L175.714935,88.4330929 L208.077866,69.671974 L208.077866,69.671974 Z"/>
    <path fill="#1C78C0" d="M108.899768,189.657858 L54.1514118,159.512151 L54.1514118,99.8603202 L108.899768,131.45575 L108.899768,189.657858 L108.899768,189.657858 Z M116.745327,189.657858 L171.493684,159.55479 L171.493684,99.8603202 L116.745327,131.45575 L116.745327,189.657858 Z M57.8183578,92.952817 L112.822547,62.7218322 L167.784099,92.952817 L112.822547,124.676164 L57.8183578,92.952817 L57.8183578,92.952817 Z"/>
  </g>
</svg>
