<svg xmlns="http://www.w3.org/2000/svg" version="1.1" viewBox="-5.0 -10.0 110.0 135.0" fill="#fff" height="48" >
 <path d="m10.895 66.695c0.29688 0.72656-0.050781 1.5547-0.77734 1.8516-0.17578 0.070313-0.35547 0.10547-0.53516 0.10547-0.55859 0-1.0898-0.33203-1.3125-0.88281-5.0703-12.41-4.2109-26.242 2.3633-37.949 5.8672-10.441 15.656-17.91 27.18-20.883l-1.9375-1.3086c-0.64844-0.4375-0.82031-1.3203-0.38281-1.9688 0.4375-0.64844 1.3203-0.82031 1.9688-0.38281l4.6641 3.1523c0.003906 0.003906 0.007812 0.003906 0.007812 0.007812 0.023438 0.015625 0.042969 0.035156 0.066407 0.054688 0.050781 0.039062 0.097656 0.078124 0.14062 0.12109 0.015625 0.015625 0.027344 0.035157 0.042968 0.050781 0.042969 0.050782 0.089844 0.10156 0.125 0.15625 0.015626 0.023438 0.027344 0.050782 0.042969 0.078126 0.03125 0.050781 0.058594 0.10547 0.082031 0.16016 0.011719 0.03125 0.023438 0.066406 0.03125 0.097656 0.019532 0.054688 0.035157 0.10938 0.046876 0.16406 0.003906 0.011719 0.007812 0.023438 0.007812 0.035157 0.003906 0.023437 0.003906 0.050781 0.003906 0.074219 0.007813 0.054687 0.011719 0.10937 0.011719 0.16406 0 0.039062-0.003906 0.082031-0.003906 0.12109-0.003907 0.046875-0.007813 0.097656-0.019531 0.14453-0.007813 0.042969-0.019532 0.085937-0.027344 0.125-0.011719 0.042969-0.027344 0.085937-0.042969 0.12891s-0.035156 0.085938-0.054687 0.125c-0.011719 0.019531-0.015626 0.042969-0.027344 0.0625l-2.5859 4.582c-0.26172 0.46094-0.74219 0.72266-1.2383 0.72266-0.23438 0-0.47656-0.058594-0.69531-0.18359-0.68359-0.38672-0.92187-1.25-0.53906-1.9336l1.0195-1.8086c-10.781 2.7812-19.941 9.7617-25.43 19.531-6.1289 10.945-6.9375 23.879-2.1953 35.484zm83.965-4.1172c-0.33984-0.70312-1.1875-1-1.8945-0.66016l-2.1289 1.0273c3.1914-11.438 1.6172-23.648-4.5039-33.977-6.8477-11.543-18.391-19.207-31.672-21.023-0.77734-0.10156-1.4922 0.4375-1.5977 1.2148s0.4375 1.4922 1.2148 1.5977c12.418 1.6953 23.211 8.8633 29.613 19.66 5.7266 9.6602 7.1953 21.078 4.207 31.777l-1.0508-1.7812c-0.39844-0.67578-1.2656-0.89844-1.9414-0.5-0.67578 0.39844-0.89844 1.2695-0.5 1.9414l2.668 4.5195c0.007812 0.015625 0.019531 0.023438 0.03125 0.039062 0.050781 0.082032 0.10937 0.15625 0.17578 0.22656 0.011719 0.011719 0.023437 0.027344 0.035156 0.042969 0.078125 0.074218 0.16797 0.14062 0.26562 0.19922 0.027344 0.015626 0.050781 0.023438 0.078125 0.039063 0.050781 0.023437 0.097656 0.050781 0.14844 0.070313 0.027344 0.011718 0.058594 0.015624 0.085938 0.023437s0.050781 0.015625 0.078125 0.019531c0.10547 0.023438 0.21484 0.042969 0.32031 0.042969h0.007812c0.125 0 0.25-0.023437 0.37109-0.058594 0.039062-0.011719 0.074218-0.023437 0.10938-0.039062 0.042969-0.015625 0.085937-0.023438 0.12891-0.042969l5.0859-2.457c0.70703-0.34766 1.0039-1.1953 0.66406-1.9023zm-11.82 13.473c-0.61719-0.48047-1.5117-0.36719-1.9922 0.25391-7.6836 9.9141-19.285 15.68-31.828 15.824-0.16016 0-0.32031 0.003906-0.48438 0.003906-11.434 0-22.211-4.7227-29.938-13.055l1.8281-0.023437c0.78516-0.007813 1.4102-0.65234 1.4023-1.4336-0.007813-0.77734-0.64062-1.4023-1.418-1.4023h-0.015625l-5.2539 0.0625c-0.73438 0.007812-1.3438 0.57812-1.3984 1.3125l-0.42188 5.6133c-0.058593 0.78125 0.52734 1.4609 1.3086 1.5195 0.035156 0.003907 0.070313 0.003907 0.10938 0.003907 0.73438 0 1.3555-0.56641 1.4141-1.3125l0.19531-2.6055c8.2773 9.0312 19.875 14.156 32.188 14.156 0.17188 0 0.34375 0 0.51562-0.003906 13.414-0.15234 25.82-6.3203 34.039-16.922 0.48047-0.62109 0.36719-1.5117-0.25-1.9922zm-58.57-2.1367v-7.8594h2.8359l0.003906 6.4414h32.637v-32.637h-9.75v6.5898c0 0.45703-0.21875 0.88672-0.58984 1.1523-0.24609 0.17578-0.53516 0.26563-0.82812 0.26563-0.15234 0-0.30469-0.023438-0.45312-0.074219l-4.6758-1.5703-4.6758 1.5703c-0.43359 0.14453-0.91016 0.074219-1.2812-0.19141-0.37109-0.26562-0.58984-0.69531-0.58984-1.1523v-6.5898h-9.793v4.2227h4.9297c0.78516 0 1.418 0.63672 1.418 1.418 0 0.78516-0.63672 1.418-1.418 1.418h-13.789c-0.78516 0-1.418-0.63672-1.418-1.418 0-0.78516 0.63672-1.418 1.418-1.418h6.0195v-5.6445c0-0.011719 0.003906-0.023438 0.003906-0.035156 0.003906-0.082032 0.007813-0.16016 0.023438-0.24219 0.007812-0.046875 0.027344-0.085937 0.039062-0.13281 0.011719-0.042969 0.023438-0.089844 0.042969-0.13281 0.019531-0.050781 0.046875-0.09375 0.074219-0.14062 0.019531-0.035156 0.035156-0.070312 0.058594-0.10547 0.050781-0.078126 0.10937-0.15234 0.17578-0.21484l12.355-12.355c0.26562-0.26562 0.62891-0.41406 1.0039-0.41406h35.477c0.011719 0 0.023438 0.003907 0.035156 0.003907 0.082032 0.003906 0.16016 0.007812 0.24219 0.023437 0.046875 0.007813 0.085938 0.027344 0.13281 0.039063 0.042969 0.011719 0.089844 0.023437 0.13281 0.042969 0.050781 0.019531 0.09375 0.046874 0.14062 0.074218 0.035156 0.019532 0.070312 0.035156 0.10547 0.058594 0.15625 0.10547 0.28906 0.23828 0.39453 0.39453 0.023438 0.035157 0.039062 0.070313 0.058594 0.10547 0.023437 0.046875 0.054687 0.089844 0.074218 0.14062 0.019532 0.042969 0.027344 0.089844 0.042969 0.13281 0.011719 0.042968 0.03125 0.085937 0.039063 0.13281 0.015625 0.078125 0.023437 0.16016 0.023437 0.24219 0 0.011718 0.003907 0.023437 0.003907 0.035156v35.477c0 0.375-0.14844 0.73828-0.41406 1.0039l-12.367 12.348c-0.066407 0.066406-0.13672 0.125-0.21484 0.17578-0.035156 0.023438-0.074219 0.039062-0.10938 0.058594-0.042969 0.023437-0.085938 0.050781-0.13281 0.070312-0.046875 0.019532-0.09375 0.03125-0.14453 0.042969-0.039063 0.011719-0.078125 0.027344-0.12109 0.035156-0.089843 0.019531-0.18359 0.027344-0.27734 0.027344l-35.48 0.003906c-0.78125 0-1.418-0.63281-1.418-1.418zm47.832-12.945v-31.461l-9.5195 9.5195v31.465zm-20.773-27.289h-6.2422l-5.3477 5.3477v5.4453l3.2578-1.0938c0.14844-0.050781 0.30078-0.074218 0.45313-0.074218 0.15234 0 0.30469 0.023437 0.45312 0.074218l3.2578 1.0938v-6.0352c0-0.375 0.14844-0.73828 0.41406-1.0039zm9.25 3.3398 9.5195-9.5195h-31.465l-9.5195 9.5195h8.6172l5.7617-5.7617c0.26562-0.26562 0.62891-0.41406 1.0039-0.41406h10.258c0.57422 0 1.0898 0.34766 1.3086 0.875 0.21875 0.53125 0.097656 1.1406-0.30859 1.5469l-3.7578 3.7578zm-36.309 18.801v5.2656h-6.0195c-0.78516 0-1.418 0.63672-1.418 1.418 0 0.78516 0.63672 1.418 1.418 1.418h12c0.78516 0 1.418-0.63672 1.418-1.418 0-0.78516-0.63672-1.418-1.418-1.418h-3.1406v-5.2656zm9.1836-3.5508c0-0.78516-0.63672-1.418-1.418-1.418h-4.9297v-1.7969h-2.8359v1.7969l-11.023-0.003906c-0.78516 0-1.418 0.63672-1.418 1.418 0 0.78516 0.63672 1.418 1.418 1.418h18.789c0.78516 0.003906 1.418-0.63281 1.418-1.4141z"/>
</svg>